G75*
%MOIN*%
%OFA0B0*%
%FSLAX24Y24*%
%IPPOS*%
%LPD*%
%AMOC8*
5,1,8,0,0,1.08239X$1,22.5*
%
%ADD10C,0.0000*%
%ADD11C,0.0100*%
%ADD12C,0.0040*%
%ADD13C,0.0060*%
%ADD14C,0.0050*%
%ADD15C,0.0120*%
%ADD16C,0.0020*%
%ADD17R,0.0150X0.1600*%
%ADD18R,0.0350X0.0050*%
%ADD19R,0.0250X0.0450*%
%ADD20R,0.0250X0.1600*%
%ADD21R,0.4000X0.0200*%
%ADD22R,0.1550X0.0050*%
%ADD23R,0.1900X0.0200*%
%ADD24C,0.0080*%
%ADD25R,0.0150X0.0200*%
%ADD26R,0.0200X0.0150*%
%ADD27C,0.0030*%
%ADD28R,0.1600X0.0150*%
%ADD29R,0.0050X0.0350*%
%ADD30R,0.0450X0.0250*%
%ADD31R,0.1600X0.0250*%
%ADD32R,0.0200X0.4000*%
%ADD33R,0.0050X0.1550*%
%ADD34R,0.0200X0.1900*%
D10*
X000100Y000100D02*
X000100Y031596D01*
X039470Y031596D01*
X039470Y000100D01*
X000100Y000100D01*
X000350Y001600D02*
X000352Y001670D01*
X000358Y001740D01*
X000368Y001809D01*
X000381Y001878D01*
X000399Y001946D01*
X000420Y002013D01*
X000445Y002078D01*
X000474Y002142D01*
X000506Y002205D01*
X000542Y002265D01*
X000581Y002323D01*
X000623Y002379D01*
X000668Y002433D01*
X000716Y002484D01*
X000767Y002532D01*
X000821Y002577D01*
X000877Y002619D01*
X000935Y002658D01*
X000995Y002694D01*
X001058Y002726D01*
X001122Y002755D01*
X001187Y002780D01*
X001254Y002801D01*
X001322Y002819D01*
X001391Y002832D01*
X001460Y002842D01*
X001530Y002848D01*
X001600Y002850D01*
X001670Y002848D01*
X001740Y002842D01*
X001809Y002832D01*
X001878Y002819D01*
X001946Y002801D01*
X002013Y002780D01*
X002078Y002755D01*
X002142Y002726D01*
X002205Y002694D01*
X002265Y002658D01*
X002323Y002619D01*
X002379Y002577D01*
X002433Y002532D01*
X002484Y002484D01*
X002532Y002433D01*
X002577Y002379D01*
X002619Y002323D01*
X002658Y002265D01*
X002694Y002205D01*
X002726Y002142D01*
X002755Y002078D01*
X002780Y002013D01*
X002801Y001946D01*
X002819Y001878D01*
X002832Y001809D01*
X002842Y001740D01*
X002848Y001670D01*
X002850Y001600D01*
X002848Y001530D01*
X002842Y001460D01*
X002832Y001391D01*
X002819Y001322D01*
X002801Y001254D01*
X002780Y001187D01*
X002755Y001122D01*
X002726Y001058D01*
X002694Y000995D01*
X002658Y000935D01*
X002619Y000877D01*
X002577Y000821D01*
X002532Y000767D01*
X002484Y000716D01*
X002433Y000668D01*
X002379Y000623D01*
X002323Y000581D01*
X002265Y000542D01*
X002205Y000506D01*
X002142Y000474D01*
X002078Y000445D01*
X002013Y000420D01*
X001946Y000399D01*
X001878Y000381D01*
X001809Y000368D01*
X001740Y000358D01*
X001670Y000352D01*
X001600Y000350D01*
X001530Y000352D01*
X001460Y000358D01*
X001391Y000368D01*
X001322Y000381D01*
X001254Y000399D01*
X001187Y000420D01*
X001122Y000445D01*
X001058Y000474D01*
X000995Y000506D01*
X000935Y000542D01*
X000877Y000581D01*
X000821Y000623D01*
X000767Y000668D01*
X000716Y000716D01*
X000668Y000767D01*
X000623Y000821D01*
X000581Y000877D01*
X000542Y000935D01*
X000506Y000995D01*
X000474Y001058D01*
X000445Y001122D01*
X000420Y001187D01*
X000399Y001254D01*
X000381Y001322D01*
X000368Y001391D01*
X000358Y001460D01*
X000352Y001530D01*
X000350Y001600D01*
X000350Y030100D02*
X000352Y030170D01*
X000358Y030240D01*
X000368Y030309D01*
X000381Y030378D01*
X000399Y030446D01*
X000420Y030513D01*
X000445Y030578D01*
X000474Y030642D01*
X000506Y030705D01*
X000542Y030765D01*
X000581Y030823D01*
X000623Y030879D01*
X000668Y030933D01*
X000716Y030984D01*
X000767Y031032D01*
X000821Y031077D01*
X000877Y031119D01*
X000935Y031158D01*
X000995Y031194D01*
X001058Y031226D01*
X001122Y031255D01*
X001187Y031280D01*
X001254Y031301D01*
X001322Y031319D01*
X001391Y031332D01*
X001460Y031342D01*
X001530Y031348D01*
X001600Y031350D01*
X001670Y031348D01*
X001740Y031342D01*
X001809Y031332D01*
X001878Y031319D01*
X001946Y031301D01*
X002013Y031280D01*
X002078Y031255D01*
X002142Y031226D01*
X002205Y031194D01*
X002265Y031158D01*
X002323Y031119D01*
X002379Y031077D01*
X002433Y031032D01*
X002484Y030984D01*
X002532Y030933D01*
X002577Y030879D01*
X002619Y030823D01*
X002658Y030765D01*
X002694Y030705D01*
X002726Y030642D01*
X002755Y030578D01*
X002780Y030513D01*
X002801Y030446D01*
X002819Y030378D01*
X002832Y030309D01*
X002842Y030240D01*
X002848Y030170D01*
X002850Y030100D01*
X002848Y030030D01*
X002842Y029960D01*
X002832Y029891D01*
X002819Y029822D01*
X002801Y029754D01*
X002780Y029687D01*
X002755Y029622D01*
X002726Y029558D01*
X002694Y029495D01*
X002658Y029435D01*
X002619Y029377D01*
X002577Y029321D01*
X002532Y029267D01*
X002484Y029216D01*
X002433Y029168D01*
X002379Y029123D01*
X002323Y029081D01*
X002265Y029042D01*
X002205Y029006D01*
X002142Y028974D01*
X002078Y028945D01*
X002013Y028920D01*
X001946Y028899D01*
X001878Y028881D01*
X001809Y028868D01*
X001740Y028858D01*
X001670Y028852D01*
X001600Y028850D01*
X001530Y028852D01*
X001460Y028858D01*
X001391Y028868D01*
X001322Y028881D01*
X001254Y028899D01*
X001187Y028920D01*
X001122Y028945D01*
X001058Y028974D01*
X000995Y029006D01*
X000935Y029042D01*
X000877Y029081D01*
X000821Y029123D01*
X000767Y029168D01*
X000716Y029216D01*
X000668Y029267D01*
X000623Y029321D01*
X000581Y029377D01*
X000542Y029435D01*
X000506Y029495D01*
X000474Y029558D01*
X000445Y029622D01*
X000420Y029687D01*
X000399Y029754D01*
X000381Y029822D01*
X000368Y029891D01*
X000358Y029960D01*
X000352Y030030D01*
X000350Y030100D01*
X036850Y030100D02*
X036852Y030170D01*
X036858Y030240D01*
X036868Y030309D01*
X036881Y030378D01*
X036899Y030446D01*
X036920Y030513D01*
X036945Y030578D01*
X036974Y030642D01*
X037006Y030705D01*
X037042Y030765D01*
X037081Y030823D01*
X037123Y030879D01*
X037168Y030933D01*
X037216Y030984D01*
X037267Y031032D01*
X037321Y031077D01*
X037377Y031119D01*
X037435Y031158D01*
X037495Y031194D01*
X037558Y031226D01*
X037622Y031255D01*
X037687Y031280D01*
X037754Y031301D01*
X037822Y031319D01*
X037891Y031332D01*
X037960Y031342D01*
X038030Y031348D01*
X038100Y031350D01*
X038170Y031348D01*
X038240Y031342D01*
X038309Y031332D01*
X038378Y031319D01*
X038446Y031301D01*
X038513Y031280D01*
X038578Y031255D01*
X038642Y031226D01*
X038705Y031194D01*
X038765Y031158D01*
X038823Y031119D01*
X038879Y031077D01*
X038933Y031032D01*
X038984Y030984D01*
X039032Y030933D01*
X039077Y030879D01*
X039119Y030823D01*
X039158Y030765D01*
X039194Y030705D01*
X039226Y030642D01*
X039255Y030578D01*
X039280Y030513D01*
X039301Y030446D01*
X039319Y030378D01*
X039332Y030309D01*
X039342Y030240D01*
X039348Y030170D01*
X039350Y030100D01*
X039348Y030030D01*
X039342Y029960D01*
X039332Y029891D01*
X039319Y029822D01*
X039301Y029754D01*
X039280Y029687D01*
X039255Y029622D01*
X039226Y029558D01*
X039194Y029495D01*
X039158Y029435D01*
X039119Y029377D01*
X039077Y029321D01*
X039032Y029267D01*
X038984Y029216D01*
X038933Y029168D01*
X038879Y029123D01*
X038823Y029081D01*
X038765Y029042D01*
X038705Y029006D01*
X038642Y028974D01*
X038578Y028945D01*
X038513Y028920D01*
X038446Y028899D01*
X038378Y028881D01*
X038309Y028868D01*
X038240Y028858D01*
X038170Y028852D01*
X038100Y028850D01*
X038030Y028852D01*
X037960Y028858D01*
X037891Y028868D01*
X037822Y028881D01*
X037754Y028899D01*
X037687Y028920D01*
X037622Y028945D01*
X037558Y028974D01*
X037495Y029006D01*
X037435Y029042D01*
X037377Y029081D01*
X037321Y029123D01*
X037267Y029168D01*
X037216Y029216D01*
X037168Y029267D01*
X037123Y029321D01*
X037081Y029377D01*
X037042Y029435D01*
X037006Y029495D01*
X036974Y029558D01*
X036945Y029622D01*
X036920Y029687D01*
X036899Y029754D01*
X036881Y029822D01*
X036868Y029891D01*
X036858Y029960D01*
X036852Y030030D01*
X036850Y030100D01*
X036850Y001600D02*
X036852Y001670D01*
X036858Y001740D01*
X036868Y001809D01*
X036881Y001878D01*
X036899Y001946D01*
X036920Y002013D01*
X036945Y002078D01*
X036974Y002142D01*
X037006Y002205D01*
X037042Y002265D01*
X037081Y002323D01*
X037123Y002379D01*
X037168Y002433D01*
X037216Y002484D01*
X037267Y002532D01*
X037321Y002577D01*
X037377Y002619D01*
X037435Y002658D01*
X037495Y002694D01*
X037558Y002726D01*
X037622Y002755D01*
X037687Y002780D01*
X037754Y002801D01*
X037822Y002819D01*
X037891Y002832D01*
X037960Y002842D01*
X038030Y002848D01*
X038100Y002850D01*
X038170Y002848D01*
X038240Y002842D01*
X038309Y002832D01*
X038378Y002819D01*
X038446Y002801D01*
X038513Y002780D01*
X038578Y002755D01*
X038642Y002726D01*
X038705Y002694D01*
X038765Y002658D01*
X038823Y002619D01*
X038879Y002577D01*
X038933Y002532D01*
X038984Y002484D01*
X039032Y002433D01*
X039077Y002379D01*
X039119Y002323D01*
X039158Y002265D01*
X039194Y002205D01*
X039226Y002142D01*
X039255Y002078D01*
X039280Y002013D01*
X039301Y001946D01*
X039319Y001878D01*
X039332Y001809D01*
X039342Y001740D01*
X039348Y001670D01*
X039350Y001600D01*
X039348Y001530D01*
X039342Y001460D01*
X039332Y001391D01*
X039319Y001322D01*
X039301Y001254D01*
X039280Y001187D01*
X039255Y001122D01*
X039226Y001058D01*
X039194Y000995D01*
X039158Y000935D01*
X039119Y000877D01*
X039077Y000821D01*
X039032Y000767D01*
X038984Y000716D01*
X038933Y000668D01*
X038879Y000623D01*
X038823Y000581D01*
X038765Y000542D01*
X038705Y000506D01*
X038642Y000474D01*
X038578Y000445D01*
X038513Y000420D01*
X038446Y000399D01*
X038378Y000381D01*
X038309Y000368D01*
X038240Y000358D01*
X038170Y000352D01*
X038100Y000350D01*
X038030Y000352D01*
X037960Y000358D01*
X037891Y000368D01*
X037822Y000381D01*
X037754Y000399D01*
X037687Y000420D01*
X037622Y000445D01*
X037558Y000474D01*
X037495Y000506D01*
X037435Y000542D01*
X037377Y000581D01*
X037321Y000623D01*
X037267Y000668D01*
X037216Y000716D01*
X037168Y000767D01*
X037123Y000821D01*
X037081Y000877D01*
X037042Y000935D01*
X037006Y000995D01*
X036974Y001058D01*
X036945Y001122D01*
X036920Y001187D01*
X036899Y001254D01*
X036881Y001322D01*
X036868Y001391D01*
X036858Y001460D01*
X036852Y001530D01*
X036850Y001600D01*
D11*
X027550Y001500D02*
X027250Y001500D01*
X026950Y001500D01*
X026950Y001700D02*
X027250Y001700D01*
X027550Y001700D01*
X010400Y001700D02*
X010100Y001700D01*
X009800Y001700D01*
X009800Y001500D02*
X010100Y001500D01*
X010400Y001500D01*
X002950Y006800D02*
X003004Y006843D01*
X003056Y006889D01*
X003105Y006938D01*
X003152Y006990D01*
X003195Y007044D01*
X003236Y007100D01*
X003273Y007159D01*
X003307Y007219D01*
X003337Y007282D01*
X003364Y007345D01*
X003388Y007411D01*
X003408Y007477D01*
X003424Y007545D01*
X003436Y007613D01*
X003444Y007682D01*
X003449Y007751D01*
X003450Y007821D01*
X003447Y007890D01*
X003440Y007959D01*
X003429Y008027D01*
X003415Y008095D01*
X003396Y008162D01*
X003374Y008228D01*
X003349Y008293D01*
X003320Y008356D01*
X003287Y008417D01*
X003251Y008476D01*
X003212Y008533D01*
X003170Y008589D01*
X003125Y008641D01*
X003077Y008691D01*
X003026Y008738D01*
X002972Y008783D01*
X002917Y008824D01*
X002859Y008862D01*
X002799Y008897D01*
X002737Y008929D01*
X002674Y008957D01*
X002609Y008981D01*
X002543Y009002D01*
X002475Y009019D01*
X002407Y009033D01*
X002338Y009042D01*
X002269Y009048D01*
X002200Y009050D01*
X002131Y009048D01*
X002062Y009042D01*
X001993Y009033D01*
X001925Y009019D01*
X001857Y009002D01*
X001791Y008981D01*
X001726Y008957D01*
X001663Y008929D01*
X001601Y008897D01*
X001541Y008862D01*
X001483Y008824D01*
X001428Y008783D01*
X001374Y008738D01*
X001323Y008691D01*
X001275Y008641D01*
X001230Y008589D01*
X001188Y008533D01*
X001149Y008476D01*
X001113Y008417D01*
X001080Y008356D01*
X001051Y008293D01*
X001026Y008228D01*
X001004Y008162D01*
X000985Y008095D01*
X000971Y008027D01*
X000960Y007959D01*
X000953Y007890D01*
X000950Y007821D01*
X000951Y007751D01*
X000956Y007682D01*
X000964Y007613D01*
X000976Y007545D01*
X000992Y007477D01*
X001012Y007411D01*
X001036Y007345D01*
X001063Y007282D01*
X001093Y007219D01*
X001127Y007159D01*
X001164Y007100D01*
X001205Y007044D01*
X001248Y006990D01*
X001295Y006938D01*
X001344Y006889D01*
X001396Y006843D01*
X001450Y006800D01*
X002200Y010250D02*
X002700Y010250D01*
X002700Y010750D01*
X002550Y010750D01*
X002700Y010750D02*
X002700Y011250D01*
X003200Y011250D01*
X003700Y011250D02*
X003700Y010750D01*
X003700Y010250D01*
X002700Y010750D01*
X003700Y011250D01*
X003700Y010750D02*
X003850Y010750D01*
X003824Y024171D02*
X001776Y024171D01*
X001776Y027872D01*
X003824Y027872D01*
X003824Y025234D01*
X003852Y025232D01*
X003880Y025227D01*
X003907Y025217D01*
X003933Y025205D01*
X003956Y025189D01*
X003977Y025170D01*
X003996Y025149D01*
X004012Y025126D01*
X004024Y025100D01*
X004034Y025073D01*
X004039Y025045D01*
X004041Y025017D01*
X004039Y024989D01*
X004034Y024961D01*
X004024Y024934D01*
X004012Y024909D01*
X003996Y024885D01*
X003977Y024864D01*
X003956Y024845D01*
X003933Y024829D01*
X003907Y024817D01*
X003880Y024807D01*
X003852Y024802D01*
X003824Y024800D01*
X003824Y024801D02*
X003824Y024171D01*
X005676Y026921D02*
X005676Y030622D01*
X007724Y030622D01*
X007724Y027984D01*
X007752Y027982D01*
X007780Y027977D01*
X007807Y027967D01*
X007833Y027955D01*
X007856Y027939D01*
X007877Y027920D01*
X007896Y027899D01*
X007912Y027876D01*
X007924Y027850D01*
X007934Y027823D01*
X007939Y027795D01*
X007941Y027767D01*
X007939Y027739D01*
X007934Y027711D01*
X007924Y027684D01*
X007912Y027659D01*
X007896Y027635D01*
X007877Y027614D01*
X007856Y027595D01*
X007833Y027579D01*
X007807Y027567D01*
X007780Y027557D01*
X007752Y027552D01*
X007724Y027550D01*
X007724Y027551D02*
X007724Y026921D01*
X005676Y026921D01*
X009926Y026921D02*
X009926Y030622D01*
X011974Y030622D01*
X011974Y027984D01*
X012002Y027982D01*
X012030Y027977D01*
X012057Y027967D01*
X012083Y027955D01*
X012106Y027939D01*
X012127Y027920D01*
X012146Y027899D01*
X012162Y027876D01*
X012174Y027850D01*
X012184Y027823D01*
X012189Y027795D01*
X012191Y027767D01*
X012189Y027739D01*
X012184Y027711D01*
X012174Y027684D01*
X012162Y027659D01*
X012146Y027635D01*
X012127Y027614D01*
X012106Y027595D01*
X012083Y027579D01*
X012057Y027567D01*
X012030Y027557D01*
X012002Y027552D01*
X011974Y027550D01*
X011974Y027551D02*
X011974Y026921D01*
X009926Y026921D01*
X014026Y026921D02*
X014026Y030622D01*
X016074Y030622D01*
X016074Y027984D01*
X016102Y027982D01*
X016130Y027977D01*
X016157Y027967D01*
X016183Y027955D01*
X016206Y027939D01*
X016227Y027920D01*
X016246Y027899D01*
X016262Y027876D01*
X016274Y027850D01*
X016284Y027823D01*
X016289Y027795D01*
X016291Y027767D01*
X016289Y027739D01*
X016284Y027711D01*
X016274Y027684D01*
X016262Y027659D01*
X016246Y027635D01*
X016227Y027614D01*
X016206Y027595D01*
X016183Y027579D01*
X016157Y027567D01*
X016130Y027557D01*
X016102Y027552D01*
X016074Y027550D01*
X016074Y027551D02*
X016074Y026921D01*
X014026Y026921D01*
X020050Y025950D02*
X020007Y026004D01*
X019961Y026056D01*
X019912Y026105D01*
X019860Y026152D01*
X019806Y026195D01*
X019750Y026236D01*
X019691Y026273D01*
X019631Y026307D01*
X019568Y026337D01*
X019505Y026364D01*
X019439Y026388D01*
X019373Y026408D01*
X019305Y026424D01*
X019237Y026436D01*
X019168Y026444D01*
X019099Y026449D01*
X019029Y026450D01*
X018960Y026447D01*
X018891Y026440D01*
X018823Y026429D01*
X018755Y026415D01*
X018688Y026396D01*
X018622Y026374D01*
X018557Y026349D01*
X018494Y026320D01*
X018433Y026287D01*
X018374Y026251D01*
X018317Y026212D01*
X018261Y026170D01*
X018209Y026125D01*
X018159Y026077D01*
X018112Y026026D01*
X018067Y025972D01*
X018026Y025917D01*
X017988Y025859D01*
X017953Y025799D01*
X017921Y025737D01*
X017893Y025674D01*
X017869Y025609D01*
X017848Y025543D01*
X017831Y025475D01*
X017817Y025407D01*
X017808Y025338D01*
X017802Y025269D01*
X017800Y025200D01*
X017802Y025131D01*
X017808Y025062D01*
X017817Y024993D01*
X017831Y024925D01*
X017848Y024857D01*
X017869Y024791D01*
X017893Y024726D01*
X017921Y024663D01*
X017953Y024601D01*
X017988Y024541D01*
X018026Y024483D01*
X018067Y024428D01*
X018112Y024374D01*
X018159Y024323D01*
X018209Y024275D01*
X018261Y024230D01*
X018317Y024188D01*
X018374Y024149D01*
X018433Y024113D01*
X018494Y024080D01*
X018557Y024051D01*
X018622Y024026D01*
X018688Y024004D01*
X018755Y023985D01*
X018823Y023971D01*
X018891Y023960D01*
X018960Y023953D01*
X019029Y023950D01*
X019099Y023951D01*
X019168Y023956D01*
X019237Y023964D01*
X019305Y023976D01*
X019373Y023992D01*
X019439Y024012D01*
X019505Y024036D01*
X019568Y024063D01*
X019631Y024093D01*
X019691Y024127D01*
X019750Y024164D01*
X019806Y024205D01*
X019860Y024248D01*
X019912Y024295D01*
X019961Y024344D01*
X020007Y024396D01*
X020050Y024450D01*
X020626Y026971D02*
X020626Y030672D01*
X022674Y030672D01*
X022674Y028034D01*
X022702Y028032D01*
X022730Y028027D01*
X022757Y028017D01*
X022783Y028005D01*
X022806Y027989D01*
X022827Y027970D01*
X022846Y027949D01*
X022862Y027926D01*
X022874Y027900D01*
X022884Y027873D01*
X022889Y027845D01*
X022891Y027817D01*
X022889Y027789D01*
X022884Y027761D01*
X022874Y027734D01*
X022862Y027709D01*
X022846Y027685D01*
X022827Y027664D01*
X022806Y027645D01*
X022783Y027629D01*
X022757Y027617D01*
X022730Y027607D01*
X022702Y027602D01*
X022674Y027600D01*
X022674Y027601D02*
X022674Y026971D01*
X020626Y026971D01*
X025026Y026971D02*
X025026Y030672D01*
X027074Y030672D01*
X027074Y028034D01*
X027102Y028032D01*
X027130Y028027D01*
X027157Y028017D01*
X027183Y028005D01*
X027206Y027989D01*
X027227Y027970D01*
X027246Y027949D01*
X027262Y027926D01*
X027274Y027900D01*
X027284Y027873D01*
X027289Y027845D01*
X027291Y027817D01*
X027289Y027789D01*
X027284Y027761D01*
X027274Y027734D01*
X027262Y027709D01*
X027246Y027685D01*
X027227Y027664D01*
X027206Y027645D01*
X027183Y027629D01*
X027157Y027617D01*
X027130Y027607D01*
X027102Y027602D01*
X027074Y027600D01*
X027074Y027601D02*
X027074Y026971D01*
X025026Y026971D01*
X029076Y026971D02*
X029076Y030672D01*
X031124Y030672D01*
X031124Y028034D01*
X031152Y028032D01*
X031180Y028027D01*
X031207Y028017D01*
X031233Y028005D01*
X031256Y027989D01*
X031277Y027970D01*
X031296Y027949D01*
X031312Y027926D01*
X031324Y027900D01*
X031334Y027873D01*
X031339Y027845D01*
X031341Y027817D01*
X031339Y027789D01*
X031334Y027761D01*
X031324Y027734D01*
X031312Y027709D01*
X031296Y027685D01*
X031277Y027664D01*
X031256Y027645D01*
X031233Y027629D01*
X031207Y027617D01*
X031180Y027607D01*
X031152Y027602D01*
X031124Y027600D01*
X031124Y027601D02*
X031124Y026971D01*
X029076Y026971D01*
X035350Y024000D02*
X035296Y024043D01*
X035244Y024089D01*
X035195Y024138D01*
X035148Y024190D01*
X035105Y024244D01*
X035064Y024300D01*
X035027Y024359D01*
X034993Y024419D01*
X034963Y024482D01*
X034936Y024545D01*
X034912Y024611D01*
X034892Y024677D01*
X034876Y024745D01*
X034864Y024813D01*
X034856Y024882D01*
X034851Y024951D01*
X034850Y025021D01*
X034853Y025090D01*
X034860Y025159D01*
X034871Y025227D01*
X034885Y025295D01*
X034904Y025362D01*
X034926Y025428D01*
X034951Y025493D01*
X034980Y025556D01*
X035013Y025617D01*
X035049Y025676D01*
X035088Y025733D01*
X035130Y025789D01*
X035175Y025841D01*
X035223Y025891D01*
X035274Y025938D01*
X035328Y025983D01*
X035383Y026024D01*
X035441Y026062D01*
X035501Y026097D01*
X035563Y026129D01*
X035626Y026157D01*
X035691Y026181D01*
X035757Y026202D01*
X035825Y026219D01*
X035893Y026233D01*
X035962Y026242D01*
X036031Y026248D01*
X036100Y026250D01*
X036169Y026248D01*
X036238Y026242D01*
X036307Y026233D01*
X036375Y026219D01*
X036443Y026202D01*
X036509Y026181D01*
X036574Y026157D01*
X036637Y026129D01*
X036699Y026097D01*
X036759Y026062D01*
X036817Y026024D01*
X036872Y025983D01*
X036926Y025938D01*
X036977Y025891D01*
X037025Y025841D01*
X037070Y025789D01*
X037112Y025733D01*
X037151Y025676D01*
X037187Y025617D01*
X037220Y025556D01*
X037249Y025493D01*
X037274Y025428D01*
X037296Y025362D01*
X037315Y025295D01*
X037329Y025227D01*
X037340Y025159D01*
X037347Y025090D01*
X037350Y025021D01*
X037349Y024951D01*
X037344Y024882D01*
X037336Y024813D01*
X037324Y024745D01*
X037308Y024677D01*
X037288Y024611D01*
X037264Y024545D01*
X037237Y024482D01*
X037207Y024419D01*
X037173Y024359D01*
X037136Y024300D01*
X037095Y024244D01*
X037052Y024190D01*
X037005Y024138D01*
X036956Y024089D01*
X036904Y024043D01*
X036850Y024000D01*
D12*
X034380Y025402D02*
X034030Y025402D01*
X034030Y025577D01*
X034088Y025635D01*
X034205Y025635D01*
X034263Y025577D01*
X034263Y025402D01*
X034263Y025519D02*
X034380Y025635D01*
X034380Y025761D02*
X034146Y025994D01*
X034088Y025994D01*
X034030Y025936D01*
X034030Y025819D01*
X034088Y025761D01*
X034380Y025761D02*
X034380Y025994D01*
X034301Y030920D02*
X034147Y030920D01*
X034070Y030997D01*
X033917Y030920D02*
X033917Y031380D01*
X034070Y031304D02*
X034070Y031227D01*
X034147Y031150D01*
X034301Y031150D01*
X034377Y031073D01*
X034377Y030997D01*
X034301Y030920D01*
X033917Y030920D02*
X033610Y031380D01*
X033610Y030920D01*
X033457Y030920D02*
X033303Y030920D01*
X033380Y030920D02*
X033380Y031380D01*
X033303Y031380D02*
X033457Y031380D01*
X033150Y031304D02*
X033150Y031150D01*
X033073Y031073D01*
X032843Y031073D01*
X032843Y030920D02*
X032843Y031380D01*
X033073Y031380D01*
X033150Y031304D01*
X032689Y030843D02*
X032382Y030843D01*
X032229Y030920D02*
X031922Y030920D01*
X031922Y031380D01*
X032229Y031380D01*
X032075Y031150D02*
X031922Y031150D01*
X031768Y031380D02*
X031462Y031380D01*
X031615Y031380D02*
X031615Y030920D01*
X031308Y030997D02*
X031308Y031304D01*
X031231Y031380D01*
X031078Y031380D01*
X031001Y031304D01*
X031001Y030997D01*
X031078Y030920D01*
X031231Y030920D01*
X031308Y030997D01*
X030848Y030920D02*
X030848Y031380D01*
X030694Y031227D01*
X030541Y031380D01*
X030541Y030920D01*
X030387Y030920D02*
X030080Y030920D01*
X030080Y031380D01*
X030387Y031380D01*
X030234Y031150D02*
X030080Y031150D01*
X029927Y031150D02*
X029850Y031073D01*
X029620Y031073D01*
X029620Y030920D02*
X029620Y031380D01*
X029850Y031380D01*
X029927Y031304D01*
X029927Y031150D01*
X029773Y031073D02*
X029927Y030920D01*
X027258Y031150D02*
X027181Y031073D01*
X026951Y031073D01*
X026951Y030920D02*
X026951Y031380D01*
X027181Y031380D01*
X027258Y031304D01*
X027258Y031150D01*
X026798Y031380D02*
X026798Y030920D01*
X026491Y030920D02*
X026491Y031380D01*
X026644Y031227D01*
X026798Y031380D01*
X026337Y031380D02*
X026337Y030997D01*
X026261Y030920D01*
X026107Y030920D01*
X026030Y030997D01*
X026030Y031380D01*
X025877Y031304D02*
X025800Y031380D01*
X025570Y031380D01*
X025570Y030920D01*
X025570Y031073D02*
X025800Y031073D01*
X025877Y031150D01*
X025877Y031304D01*
X024700Y031304D02*
X024700Y031380D01*
X024700Y031304D02*
X024546Y031150D01*
X024546Y030920D01*
X024546Y031150D02*
X024393Y031304D01*
X024393Y031380D01*
X024239Y031227D02*
X024086Y031380D01*
X023932Y031227D01*
X023932Y030920D01*
X023779Y030920D02*
X023472Y030920D01*
X023472Y031380D01*
X023318Y031380D02*
X023012Y031380D01*
X023012Y030920D01*
X023318Y030920D01*
X023165Y031150D02*
X023012Y031150D01*
X022858Y031150D02*
X022781Y031073D01*
X022551Y031073D01*
X022551Y030920D02*
X022551Y031380D01*
X022781Y031380D01*
X022858Y031304D01*
X022858Y031150D01*
X022705Y031073D02*
X022858Y030920D01*
X022398Y030843D02*
X022091Y030843D01*
X021937Y031073D02*
X021784Y030920D01*
X021630Y031073D01*
X021630Y031380D01*
X021477Y031380D02*
X021170Y031380D01*
X021170Y031150D01*
X021323Y031227D01*
X021400Y031227D01*
X021477Y031150D01*
X021477Y030997D01*
X021400Y030920D01*
X021247Y030920D01*
X021170Y030997D01*
X021937Y031073D02*
X021937Y031380D01*
X023932Y031150D02*
X024239Y031150D01*
X024239Y031227D02*
X024239Y030920D01*
X015970Y024704D02*
X015970Y024587D01*
X015912Y024529D01*
X015970Y024404D02*
X015853Y024287D01*
X015853Y024345D02*
X015853Y024170D01*
X015970Y024170D02*
X015620Y024170D01*
X015620Y024345D01*
X015678Y024404D01*
X015795Y024404D01*
X015853Y024345D01*
X015678Y024529D02*
X015620Y024587D01*
X015620Y024704D01*
X015678Y024763D01*
X015736Y024763D01*
X015795Y024704D01*
X015853Y024763D01*
X015912Y024763D01*
X015970Y024704D01*
X015795Y024704D02*
X015795Y024646D01*
X015721Y030870D02*
X015798Y030947D01*
X015798Y031330D01*
X015491Y031330D02*
X015491Y030947D01*
X015568Y030870D01*
X015721Y030870D01*
X015337Y031100D02*
X015261Y031023D01*
X015030Y031023D01*
X015030Y030870D02*
X015030Y031330D01*
X015261Y031330D01*
X015337Y031254D01*
X015337Y031100D01*
X014877Y030947D02*
X014800Y030870D01*
X014647Y030870D01*
X014570Y030947D01*
X014570Y031254D01*
X014647Y031330D01*
X014800Y031330D01*
X014877Y031254D01*
X014460Y031254D02*
X014460Y031330D01*
X014460Y031254D02*
X014307Y031100D01*
X014307Y030870D01*
X014307Y031100D02*
X014153Y031254D01*
X014153Y031330D01*
X014000Y031177D02*
X014000Y030870D01*
X014000Y031100D02*
X013693Y031100D01*
X013693Y031177D02*
X013846Y031330D01*
X014000Y031177D01*
X013693Y031177D02*
X013693Y030870D01*
X013539Y030870D02*
X013232Y030870D01*
X013232Y031330D01*
X013079Y031330D02*
X012772Y031330D01*
X012772Y030870D01*
X013079Y030870D01*
X012925Y031100D02*
X012772Y031100D01*
X012618Y031100D02*
X012542Y031023D01*
X012312Y031023D01*
X012312Y030870D02*
X012312Y031330D01*
X012542Y031330D01*
X012618Y031254D01*
X012618Y031100D01*
X012465Y031023D02*
X012618Y030870D01*
X012158Y030793D02*
X011851Y030793D01*
X011698Y031023D02*
X011698Y031330D01*
X011698Y031023D02*
X011544Y030870D01*
X011391Y031023D01*
X011391Y031330D01*
X011237Y031254D02*
X011161Y031330D01*
X011007Y031330D01*
X010930Y031254D01*
X011237Y031254D02*
X011237Y031177D01*
X010930Y030870D01*
X011237Y030870D01*
X010777Y030870D02*
X010470Y030870D01*
X010623Y030870D02*
X010623Y031330D01*
X010470Y031177D01*
X008215Y031254D02*
X008215Y030947D01*
X008138Y030870D01*
X007985Y030870D01*
X007908Y030947D01*
X007908Y031254D01*
X007985Y031330D01*
X008138Y031330D01*
X008215Y031254D01*
X007755Y031330D02*
X007601Y031330D01*
X007678Y031330D02*
X007678Y030870D01*
X007601Y030870D02*
X007755Y030870D01*
X007448Y030947D02*
X007448Y031254D01*
X007371Y031330D01*
X007141Y031330D01*
X007141Y030870D01*
X007371Y030870D01*
X007448Y030947D01*
X006987Y030870D02*
X006987Y031177D01*
X006834Y031330D01*
X006680Y031177D01*
X006680Y030870D01*
X006527Y030870D02*
X006373Y031023D01*
X006450Y031023D02*
X006220Y031023D01*
X006220Y030870D02*
X006220Y031330D01*
X006450Y031330D01*
X006527Y031254D01*
X006527Y031100D01*
X006450Y031023D01*
X006680Y031100D02*
X006987Y031100D01*
X004439Y028504D02*
X004363Y028580D01*
X004132Y028580D01*
X004132Y028120D01*
X004363Y028120D01*
X004439Y028197D01*
X004439Y028504D01*
X003979Y028580D02*
X003979Y028120D01*
X003672Y028580D01*
X003672Y028120D01*
X003518Y028197D02*
X003518Y028350D01*
X003365Y028350D01*
X003212Y028197D02*
X003212Y028504D01*
X003288Y028580D01*
X003442Y028580D01*
X003518Y028504D01*
X003518Y028197D02*
X003442Y028120D01*
X003288Y028120D01*
X003212Y028197D01*
X003058Y028043D02*
X002751Y028043D01*
X002598Y028120D02*
X002444Y028273D01*
X002521Y028273D02*
X002291Y028273D01*
X002291Y028120D02*
X002291Y028580D01*
X002521Y028580D01*
X002598Y028504D01*
X002598Y028350D01*
X002521Y028273D01*
X002137Y028120D02*
X002137Y028580D01*
X001830Y028580D02*
X001830Y028120D01*
X001984Y028273D01*
X002137Y028120D01*
X001677Y028350D02*
X001600Y028273D01*
X001370Y028273D01*
X001370Y028120D02*
X001370Y028580D01*
X001600Y028580D01*
X001677Y028504D01*
X001677Y028350D01*
X024570Y018580D02*
X024570Y018273D01*
X024723Y018120D01*
X024877Y018273D01*
X024877Y018580D01*
X025030Y018504D02*
X025030Y018197D01*
X025107Y018120D01*
X025261Y018120D01*
X025337Y018197D01*
X025337Y018504D01*
X025261Y018580D01*
X025107Y018580D01*
X025030Y018504D01*
X025491Y018580D02*
X025491Y018120D01*
X025798Y018120D01*
X026105Y018120D02*
X026105Y018580D01*
X026258Y018580D02*
X025951Y018580D01*
X026412Y018427D02*
X026412Y018120D01*
X026412Y018350D02*
X026718Y018350D01*
X026718Y018427D02*
X026718Y018120D01*
X026872Y018197D02*
X026949Y018120D01*
X027102Y018120D01*
X027179Y018197D01*
X027179Y018350D01*
X027025Y018350D01*
X026872Y018197D02*
X026872Y018504D01*
X026949Y018580D01*
X027102Y018580D01*
X027179Y018504D01*
X027332Y018580D02*
X027332Y018120D01*
X027639Y018120D01*
X027793Y018043D02*
X028100Y018043D01*
X028253Y018120D02*
X028253Y018580D01*
X028483Y018580D01*
X028560Y018504D01*
X028560Y018350D01*
X028483Y018273D01*
X028253Y018273D01*
X028407Y018273D02*
X028560Y018120D01*
X028714Y018120D02*
X029020Y018120D01*
X029174Y018197D02*
X029251Y018120D01*
X029404Y018120D01*
X029481Y018197D01*
X029481Y018350D01*
X029327Y018350D01*
X029174Y018197D02*
X029174Y018504D01*
X029251Y018580D01*
X029404Y018580D01*
X029481Y018504D01*
X029634Y018580D02*
X029634Y018197D01*
X029711Y018120D01*
X029865Y018120D01*
X029941Y018197D01*
X029941Y018580D01*
X030095Y018580D02*
X030095Y018120D01*
X030402Y018120D01*
X030555Y018120D02*
X030555Y018427D01*
X030709Y018580D01*
X030862Y018427D01*
X030862Y018120D01*
X030862Y018350D02*
X030555Y018350D01*
X031015Y018580D02*
X031322Y018580D01*
X031169Y018580D02*
X031169Y018120D01*
X031476Y018197D02*
X031476Y018504D01*
X031553Y018580D01*
X031706Y018580D01*
X031783Y018504D01*
X031783Y018197D01*
X031706Y018120D01*
X031553Y018120D01*
X031476Y018197D01*
X031936Y018273D02*
X032166Y018273D01*
X032243Y018350D01*
X032243Y018504D01*
X032166Y018580D01*
X031936Y018580D01*
X031936Y018120D01*
X032090Y018273D02*
X032243Y018120D01*
X032397Y018043D02*
X032704Y018043D01*
X032857Y018120D02*
X033164Y018120D01*
X033317Y018120D02*
X033624Y018427D01*
X033624Y018504D01*
X033548Y018580D01*
X033394Y018580D01*
X033317Y018504D01*
X033011Y018580D02*
X033011Y018120D01*
X033317Y018120D02*
X033624Y018120D01*
X033011Y018580D02*
X032857Y018427D01*
X029020Y018580D02*
X028714Y018580D01*
X028714Y018120D01*
X028714Y018350D02*
X028867Y018350D01*
X027639Y018580D02*
X027332Y018580D01*
X027332Y018350D02*
X027486Y018350D01*
X026718Y018427D02*
X026565Y018580D01*
X026412Y018427D01*
X034070Y031304D02*
X034147Y031380D01*
X034301Y031380D01*
X034377Y031304D01*
X003478Y003370D02*
X003478Y003020D01*
X003594Y003020D02*
X003361Y003020D01*
X003235Y003020D02*
X003119Y003137D01*
X003177Y003137D02*
X003002Y003137D01*
X003002Y003020D02*
X003002Y003370D01*
X003177Y003370D01*
X003235Y003312D01*
X003235Y003195D01*
X003177Y003137D01*
X003361Y003254D02*
X003478Y003370D01*
D13*
X003450Y003500D02*
X003400Y003550D01*
X002000Y003550D01*
X001950Y003500D01*
X001800Y003500D01*
X001783Y003502D01*
X001766Y003506D01*
X001750Y003513D01*
X001736Y003523D01*
X001723Y003536D01*
X001713Y003550D01*
X001706Y003566D01*
X001702Y003583D01*
X001700Y003600D01*
X001700Y004200D01*
X001702Y004217D01*
X001706Y004234D01*
X001713Y004250D01*
X001723Y004264D01*
X001736Y004277D01*
X001750Y004287D01*
X001766Y004294D01*
X001783Y004298D01*
X001800Y004300D01*
X001950Y004300D01*
X002000Y004250D01*
X003400Y004250D01*
X003450Y004300D01*
X003600Y004300D01*
X003617Y004298D01*
X003634Y004294D01*
X003650Y004287D01*
X003664Y004277D01*
X003677Y004264D01*
X003687Y004250D01*
X003694Y004234D01*
X003698Y004217D01*
X003700Y004200D01*
X003700Y003600D01*
X003698Y003583D01*
X003694Y003566D01*
X003687Y003550D01*
X003677Y003536D01*
X003664Y003523D01*
X003650Y003513D01*
X003634Y003506D01*
X003617Y003502D01*
X003600Y003500D01*
X003450Y003500D01*
X001200Y007800D02*
X001202Y007863D01*
X001208Y007925D01*
X001218Y007987D01*
X001231Y008049D01*
X001249Y008109D01*
X001270Y008168D01*
X001295Y008226D01*
X001324Y008282D01*
X001356Y008336D01*
X001391Y008388D01*
X001429Y008437D01*
X001471Y008485D01*
X001515Y008529D01*
X001563Y008571D01*
X001612Y008609D01*
X001664Y008644D01*
X001718Y008676D01*
X001774Y008705D01*
X001832Y008730D01*
X001891Y008751D01*
X001951Y008769D01*
X002013Y008782D01*
X002075Y008792D01*
X002137Y008798D01*
X002200Y008800D01*
X002263Y008798D01*
X002325Y008792D01*
X002387Y008782D01*
X002449Y008769D01*
X002509Y008751D01*
X002568Y008730D01*
X002626Y008705D01*
X002682Y008676D01*
X002736Y008644D01*
X002788Y008609D01*
X002837Y008571D01*
X002885Y008529D01*
X002929Y008485D01*
X002971Y008437D01*
X003009Y008388D01*
X003044Y008336D01*
X003076Y008282D01*
X003105Y008226D01*
X003130Y008168D01*
X003151Y008109D01*
X003169Y008049D01*
X003182Y007987D01*
X003192Y007925D01*
X003198Y007863D01*
X003200Y007800D01*
X003198Y007737D01*
X003192Y007675D01*
X003182Y007613D01*
X003169Y007551D01*
X003151Y007491D01*
X003130Y007432D01*
X003105Y007374D01*
X003076Y007318D01*
X003044Y007264D01*
X003009Y007212D01*
X002971Y007163D01*
X002929Y007115D01*
X002885Y007071D01*
X002837Y007029D01*
X002788Y006991D01*
X002736Y006956D01*
X002682Y006924D01*
X002626Y006895D01*
X002568Y006870D01*
X002509Y006849D01*
X002449Y006831D01*
X002387Y006818D01*
X002325Y006808D01*
X002263Y006802D01*
X002200Y006800D01*
X002137Y006802D01*
X002075Y006808D01*
X002013Y006818D01*
X001951Y006831D01*
X001891Y006849D01*
X001832Y006870D01*
X001774Y006895D01*
X001718Y006924D01*
X001664Y006956D01*
X001612Y006991D01*
X001563Y007029D01*
X001515Y007071D01*
X001471Y007115D01*
X001429Y007163D01*
X001391Y007212D01*
X001356Y007264D01*
X001324Y007318D01*
X001295Y007374D01*
X001270Y007432D01*
X001249Y007491D01*
X001231Y007551D01*
X001218Y007613D01*
X001208Y007675D01*
X001202Y007737D01*
X001200Y007800D01*
X003450Y013300D02*
X004100Y013300D01*
X004100Y013550D01*
X004100Y015550D01*
X003650Y015550D01*
X003650Y013550D01*
X003900Y013550D01*
X003900Y013400D01*
X003450Y013400D01*
X003900Y013550D02*
X004100Y013550D01*
X001650Y013550D02*
X001650Y015550D01*
X001200Y015550D01*
X001200Y013550D01*
X001650Y013550D01*
X001320Y015941D02*
X000679Y015941D01*
X000679Y016368D01*
X000893Y016585D02*
X000679Y016799D01*
X001320Y016799D01*
X001320Y017012D02*
X001320Y016585D01*
X001000Y016154D02*
X001000Y015941D01*
X001200Y020050D02*
X001650Y020050D01*
X001650Y022050D01*
X001400Y022050D01*
X001400Y022200D01*
X001850Y022200D01*
X001850Y022300D02*
X001200Y022300D01*
X001200Y022050D01*
X001200Y020050D01*
X001200Y022050D02*
X001400Y022050D01*
X003650Y022050D02*
X003650Y020050D01*
X004100Y020050D01*
X004100Y022050D01*
X003650Y022050D01*
X005450Y023400D02*
X005450Y024050D01*
X005550Y024050D02*
X005550Y023600D01*
X005700Y023600D01*
X005700Y023850D01*
X007700Y023850D01*
X007700Y023400D01*
X005700Y023400D01*
X005450Y023400D01*
X005700Y023400D02*
X005700Y023600D01*
X005700Y025850D02*
X007700Y025850D01*
X007700Y026300D01*
X005700Y026300D01*
X005700Y025850D01*
X007891Y026030D02*
X007891Y026671D01*
X008318Y026671D01*
X008535Y026564D02*
X008642Y026671D01*
X008856Y026671D01*
X008962Y026564D01*
X008962Y026457D01*
X008856Y026350D01*
X008962Y026244D01*
X008962Y026137D01*
X008856Y026030D01*
X008642Y026030D01*
X008535Y026137D01*
X008749Y026350D02*
X008856Y026350D01*
X008104Y026350D02*
X007891Y026350D01*
X012200Y026300D02*
X012200Y025850D01*
X014200Y025850D01*
X014200Y026100D01*
X014350Y026100D01*
X014350Y025650D01*
X014450Y025650D02*
X014450Y026300D01*
X014200Y026300D01*
X012200Y026300D01*
X014200Y026300D02*
X014200Y026100D01*
X016100Y026050D02*
X016100Y025900D01*
X016150Y025850D01*
X016150Y024450D01*
X016100Y024400D01*
X016100Y024250D01*
X016102Y024233D01*
X016106Y024216D01*
X016113Y024200D01*
X016123Y024186D01*
X016136Y024173D01*
X016150Y024163D01*
X016166Y024156D01*
X016183Y024152D01*
X016200Y024150D01*
X016800Y024150D01*
X016817Y024152D01*
X016834Y024156D01*
X016850Y024163D01*
X016864Y024173D01*
X016877Y024186D01*
X016887Y024200D01*
X016894Y024216D01*
X016898Y024233D01*
X016900Y024250D01*
X016900Y024400D01*
X016850Y024450D01*
X016850Y025850D01*
X016900Y025900D01*
X016900Y026050D01*
X016898Y026067D01*
X016894Y026084D01*
X016887Y026100D01*
X016877Y026114D01*
X016864Y026127D01*
X016850Y026137D01*
X016834Y026144D01*
X016817Y026148D01*
X016800Y026150D01*
X016200Y026150D01*
X016183Y026148D01*
X016166Y026144D01*
X016150Y026137D01*
X016136Y026127D01*
X016123Y026114D01*
X016113Y026100D01*
X016106Y026084D01*
X016102Y026067D01*
X016100Y026050D01*
X014200Y023850D02*
X012200Y023850D01*
X012200Y023400D01*
X014200Y023400D01*
X014200Y023850D01*
X018050Y025200D02*
X018052Y025263D01*
X018058Y025325D01*
X018068Y025387D01*
X018081Y025449D01*
X018099Y025509D01*
X018120Y025568D01*
X018145Y025626D01*
X018174Y025682D01*
X018206Y025736D01*
X018241Y025788D01*
X018279Y025837D01*
X018321Y025885D01*
X018365Y025929D01*
X018413Y025971D01*
X018462Y026009D01*
X018514Y026044D01*
X018568Y026076D01*
X018624Y026105D01*
X018682Y026130D01*
X018741Y026151D01*
X018801Y026169D01*
X018863Y026182D01*
X018925Y026192D01*
X018987Y026198D01*
X019050Y026200D01*
X019113Y026198D01*
X019175Y026192D01*
X019237Y026182D01*
X019299Y026169D01*
X019359Y026151D01*
X019418Y026130D01*
X019476Y026105D01*
X019532Y026076D01*
X019586Y026044D01*
X019638Y026009D01*
X019687Y025971D01*
X019735Y025929D01*
X019779Y025885D01*
X019821Y025837D01*
X019859Y025788D01*
X019894Y025736D01*
X019926Y025682D01*
X019955Y025626D01*
X019980Y025568D01*
X020001Y025509D01*
X020019Y025449D01*
X020032Y025387D01*
X020042Y025325D01*
X020048Y025263D01*
X020050Y025200D01*
X020048Y025137D01*
X020042Y025075D01*
X020032Y025013D01*
X020019Y024951D01*
X020001Y024891D01*
X019980Y024832D01*
X019955Y024774D01*
X019926Y024718D01*
X019894Y024664D01*
X019859Y024612D01*
X019821Y024563D01*
X019779Y024515D01*
X019735Y024471D01*
X019687Y024429D01*
X019638Y024391D01*
X019586Y024356D01*
X019532Y024324D01*
X019476Y024295D01*
X019418Y024270D01*
X019359Y024249D01*
X019299Y024231D01*
X019237Y024218D01*
X019175Y024208D01*
X019113Y024202D01*
X019050Y024200D01*
X018987Y024202D01*
X018925Y024208D01*
X018863Y024218D01*
X018801Y024231D01*
X018741Y024249D01*
X018682Y024270D01*
X018624Y024295D01*
X018568Y024324D01*
X018514Y024356D01*
X018462Y024391D01*
X018413Y024429D01*
X018365Y024471D01*
X018321Y024515D01*
X018279Y024563D01*
X018241Y024612D01*
X018206Y024664D01*
X018174Y024718D01*
X018145Y024774D01*
X018120Y024832D01*
X018099Y024891D01*
X018081Y024951D01*
X018068Y025013D01*
X018058Y025075D01*
X018052Y025137D01*
X018050Y025200D01*
X022250Y023900D02*
X022250Y023250D01*
X022500Y023250D01*
X024500Y023250D01*
X024500Y023700D01*
X022500Y023700D01*
X022500Y023450D01*
X022350Y023450D01*
X022350Y023900D01*
X022500Y023450D02*
X022500Y023250D01*
X022500Y025700D02*
X024500Y025700D01*
X024500Y026150D01*
X022500Y026150D01*
X022500Y025700D01*
X027630Y026030D02*
X027630Y026671D01*
X028057Y026671D01*
X028275Y026564D02*
X028381Y026671D01*
X028595Y026671D01*
X028702Y026564D01*
X028702Y026457D01*
X028275Y026030D01*
X028702Y026030D01*
X029000Y026150D02*
X029000Y025700D01*
X031000Y025700D01*
X031000Y025950D01*
X031150Y025950D01*
X031150Y025500D01*
X031250Y025500D02*
X031250Y026150D01*
X031000Y026150D01*
X029000Y026150D01*
X027844Y026350D02*
X027630Y026350D01*
X029000Y023700D02*
X029000Y023250D01*
X031000Y023250D01*
X031000Y023700D01*
X029000Y023700D01*
X031000Y025950D02*
X031000Y026150D01*
X033100Y026000D02*
X033100Y025850D01*
X033150Y025800D01*
X033150Y024400D01*
X033100Y024350D01*
X033100Y024200D01*
X033102Y024183D01*
X033106Y024166D01*
X033113Y024150D01*
X033123Y024136D01*
X033136Y024123D01*
X033150Y024113D01*
X033166Y024106D01*
X033183Y024102D01*
X033200Y024100D01*
X033800Y024100D01*
X033817Y024102D01*
X033834Y024106D01*
X033850Y024113D01*
X033864Y024123D01*
X033877Y024136D01*
X033887Y024150D01*
X033894Y024166D01*
X033898Y024183D01*
X033900Y024200D01*
X033900Y024350D01*
X033850Y024400D01*
X033850Y025800D01*
X033900Y025850D01*
X033900Y026000D01*
X033898Y026017D01*
X033894Y026034D01*
X033887Y026050D01*
X033877Y026064D01*
X033864Y026077D01*
X033850Y026087D01*
X033834Y026094D01*
X033817Y026098D01*
X033800Y026100D01*
X033200Y026100D01*
X033183Y026098D01*
X033166Y026094D01*
X033150Y026087D01*
X033136Y026077D01*
X033123Y026064D01*
X033113Y026050D01*
X033106Y026034D01*
X033102Y026017D01*
X033100Y026000D01*
X035100Y025000D02*
X035102Y025063D01*
X035108Y025125D01*
X035118Y025187D01*
X035131Y025249D01*
X035149Y025309D01*
X035170Y025368D01*
X035195Y025426D01*
X035224Y025482D01*
X035256Y025536D01*
X035291Y025588D01*
X035329Y025637D01*
X035371Y025685D01*
X035415Y025729D01*
X035463Y025771D01*
X035512Y025809D01*
X035564Y025844D01*
X035618Y025876D01*
X035674Y025905D01*
X035732Y025930D01*
X035791Y025951D01*
X035851Y025969D01*
X035913Y025982D01*
X035975Y025992D01*
X036037Y025998D01*
X036100Y026000D01*
X036163Y025998D01*
X036225Y025992D01*
X036287Y025982D01*
X036349Y025969D01*
X036409Y025951D01*
X036468Y025930D01*
X036526Y025905D01*
X036582Y025876D01*
X036636Y025844D01*
X036688Y025809D01*
X036737Y025771D01*
X036785Y025729D01*
X036829Y025685D01*
X036871Y025637D01*
X036909Y025588D01*
X036944Y025536D01*
X036976Y025482D01*
X037005Y025426D01*
X037030Y025368D01*
X037051Y025309D01*
X037069Y025249D01*
X037082Y025187D01*
X037092Y025125D01*
X037098Y025063D01*
X037100Y025000D01*
X037098Y024937D01*
X037092Y024875D01*
X037082Y024813D01*
X037069Y024751D01*
X037051Y024691D01*
X037030Y024632D01*
X037005Y024574D01*
X036976Y024518D01*
X036944Y024464D01*
X036909Y024412D01*
X036871Y024363D01*
X036829Y024315D01*
X036785Y024271D01*
X036737Y024229D01*
X036688Y024191D01*
X036636Y024156D01*
X036582Y024124D01*
X036526Y024095D01*
X036468Y024070D01*
X036409Y024049D01*
X036349Y024031D01*
X036287Y024018D01*
X036225Y024008D01*
X036163Y024002D01*
X036100Y024000D01*
X036037Y024002D01*
X035975Y024008D01*
X035913Y024018D01*
X035851Y024031D01*
X035791Y024049D01*
X035732Y024070D01*
X035674Y024095D01*
X035618Y024124D01*
X035564Y024156D01*
X035512Y024191D01*
X035463Y024229D01*
X035415Y024271D01*
X035371Y024315D01*
X035329Y024363D01*
X035291Y024412D01*
X035256Y024464D01*
X035224Y024518D01*
X035195Y024574D01*
X035170Y024632D01*
X035149Y024691D01*
X035131Y024751D01*
X035118Y024813D01*
X035108Y024875D01*
X035102Y024937D01*
X035100Y025000D01*
X027900Y002550D02*
X026600Y002550D01*
X026583Y002548D01*
X026566Y002544D01*
X026550Y002537D01*
X026536Y002527D01*
X026523Y002514D01*
X026513Y002500D01*
X026506Y002484D01*
X026502Y002467D01*
X026500Y002450D01*
X026500Y000750D01*
X026502Y000733D01*
X026506Y000716D01*
X026513Y000700D01*
X026523Y000686D01*
X026536Y000673D01*
X026550Y000663D01*
X026566Y000656D01*
X026583Y000652D01*
X026600Y000650D01*
X027900Y000650D01*
X027917Y000652D01*
X027934Y000656D01*
X027950Y000663D01*
X027964Y000673D01*
X027977Y000686D01*
X027987Y000700D01*
X027994Y000716D01*
X027998Y000733D01*
X028000Y000750D01*
X028000Y002450D01*
X027998Y002467D01*
X027994Y002484D01*
X027987Y002500D01*
X027977Y002514D01*
X027964Y002527D01*
X027950Y002537D01*
X027934Y002544D01*
X027917Y002548D01*
X027900Y002550D01*
X027250Y001750D02*
X027250Y001700D01*
X027250Y001500D02*
X027250Y001450D01*
X020200Y001200D02*
X020198Y001174D01*
X020193Y001148D01*
X020185Y001123D01*
X020173Y001100D01*
X020159Y001078D01*
X020141Y001059D01*
X020122Y001041D01*
X020100Y001027D01*
X020077Y001015D01*
X020052Y001007D01*
X020026Y001002D01*
X020000Y001000D01*
X018700Y001000D01*
X018674Y001002D01*
X018648Y001007D01*
X018623Y001015D01*
X018600Y001027D01*
X018578Y001041D01*
X018559Y001059D01*
X018541Y001078D01*
X018527Y001100D01*
X018515Y001123D01*
X018507Y001148D01*
X018502Y001174D01*
X018500Y001200D01*
X018850Y001450D02*
X019220Y001450D01*
X019470Y001450D02*
X019850Y001450D01*
X020200Y001700D02*
X020198Y001726D01*
X020193Y001752D01*
X020185Y001777D01*
X020173Y001800D01*
X020159Y001822D01*
X020141Y001841D01*
X020122Y001859D01*
X020100Y001873D01*
X020077Y001885D01*
X020052Y001893D01*
X020026Y001898D01*
X020000Y001900D01*
X018700Y001900D01*
X018674Y001898D01*
X018648Y001893D01*
X018623Y001885D01*
X018600Y001873D01*
X018578Y001859D01*
X018559Y001841D01*
X018541Y001822D01*
X018527Y001800D01*
X018515Y001777D01*
X018507Y001752D01*
X018502Y001726D01*
X018500Y001700D01*
X016300Y001700D02*
X016298Y001726D01*
X016293Y001752D01*
X016285Y001777D01*
X016273Y001800D01*
X016259Y001822D01*
X016241Y001841D01*
X016222Y001859D01*
X016200Y001873D01*
X016177Y001885D01*
X016152Y001893D01*
X016126Y001898D01*
X016100Y001900D01*
X014800Y001900D01*
X014774Y001898D01*
X014748Y001893D01*
X014723Y001885D01*
X014700Y001873D01*
X014678Y001859D01*
X014659Y001841D01*
X014641Y001822D01*
X014627Y001800D01*
X014615Y001777D01*
X014607Y001752D01*
X014602Y001726D01*
X014600Y001700D01*
X014950Y001450D02*
X015330Y001450D01*
X015580Y001450D02*
X015950Y001450D01*
X016300Y001200D02*
X016298Y001174D01*
X016293Y001148D01*
X016285Y001123D01*
X016273Y001100D01*
X016259Y001078D01*
X016241Y001059D01*
X016222Y001041D01*
X016200Y001027D01*
X016177Y001015D01*
X016152Y001007D01*
X016126Y001002D01*
X016100Y001000D01*
X014800Y001000D01*
X014774Y001002D01*
X014748Y001007D01*
X014723Y001015D01*
X014700Y001027D01*
X014678Y001041D01*
X014659Y001059D01*
X014641Y001078D01*
X014627Y001100D01*
X014615Y001123D01*
X014607Y001148D01*
X014602Y001174D01*
X014600Y001200D01*
X010850Y000750D02*
X010850Y002450D01*
X010848Y002467D01*
X010844Y002484D01*
X010837Y002500D01*
X010827Y002514D01*
X010814Y002527D01*
X010800Y002537D01*
X010784Y002544D01*
X010767Y002548D01*
X010750Y002550D01*
X009450Y002550D01*
X009433Y002548D01*
X009416Y002544D01*
X009400Y002537D01*
X009386Y002527D01*
X009373Y002514D01*
X009363Y002500D01*
X009356Y002484D01*
X009352Y002467D01*
X009350Y002450D01*
X009350Y000750D01*
X009352Y000733D01*
X009356Y000716D01*
X009363Y000700D01*
X009373Y000686D01*
X009386Y000673D01*
X009400Y000663D01*
X009416Y000656D01*
X009433Y000652D01*
X009450Y000650D01*
X010750Y000650D01*
X010767Y000652D01*
X010784Y000656D01*
X010800Y000663D01*
X010814Y000673D01*
X010827Y000686D01*
X010837Y000700D01*
X010844Y000716D01*
X010848Y000733D01*
X010850Y000750D01*
X010100Y001450D02*
X010100Y001500D01*
X010100Y001700D02*
X010100Y001750D01*
D14*
X008615Y002000D02*
X008315Y002000D01*
X008540Y002225D01*
X008540Y001775D01*
X008154Y001850D02*
X008079Y001775D01*
X007929Y001775D01*
X007854Y001850D01*
X007854Y002150D01*
X007929Y002225D01*
X008079Y002225D01*
X008154Y002150D01*
X002885Y004733D02*
X002885Y005034D01*
X002885Y005194D02*
X002435Y005194D01*
X002435Y005494D01*
X002435Y005654D02*
X002435Y005879D01*
X002510Y005954D01*
X002810Y005954D01*
X002885Y005879D01*
X002885Y005654D01*
X002435Y005654D01*
X002660Y005344D02*
X002660Y005194D01*
X002885Y005194D02*
X002885Y005494D01*
X002885Y006115D02*
X002885Y006415D01*
X002885Y006265D02*
X002435Y006265D01*
X002585Y006115D01*
X002435Y004733D02*
X002885Y004733D01*
X002956Y011495D02*
X002655Y011495D01*
X002806Y011495D02*
X002806Y011945D01*
X002655Y011795D01*
X002495Y011870D02*
X002420Y011945D01*
X002195Y011945D01*
X002195Y011495D01*
X002420Y011495D01*
X002495Y011570D01*
X002495Y011870D01*
X014625Y002400D02*
X014625Y002100D01*
X014700Y002025D01*
X014850Y002025D01*
X014925Y002100D01*
X015085Y002100D02*
X015085Y002250D01*
X015311Y002250D01*
X015386Y002175D01*
X015386Y002100D01*
X015311Y002025D01*
X015160Y002025D01*
X015085Y002100D01*
X015085Y002250D02*
X015236Y002400D01*
X015386Y002475D01*
X014925Y002400D02*
X014850Y002475D01*
X014700Y002475D01*
X014625Y002400D01*
X019304Y000800D02*
X019304Y000500D01*
X019379Y000425D01*
X019529Y000425D01*
X019604Y000500D01*
X019765Y000500D02*
X019840Y000425D01*
X019990Y000425D01*
X020065Y000500D01*
X020065Y000650D01*
X019990Y000725D01*
X019915Y000725D01*
X019765Y000650D01*
X019765Y000875D01*
X020065Y000875D01*
X019604Y000800D02*
X019529Y000875D01*
X019379Y000875D01*
X019304Y000800D01*
X028625Y001800D02*
X028700Y001725D01*
X028850Y001725D01*
X028925Y001800D01*
X029085Y001725D02*
X029386Y002025D01*
X029386Y002100D01*
X029311Y002175D01*
X029160Y002175D01*
X029085Y002100D01*
X028925Y002100D02*
X028850Y002175D01*
X028700Y002175D01*
X028625Y002100D01*
X028625Y001800D01*
X029085Y001725D02*
X029386Y001725D01*
X035235Y026575D02*
X035535Y026575D01*
X035695Y026575D02*
X035996Y026575D01*
X036156Y026575D02*
X036381Y026575D01*
X036456Y026650D01*
X036456Y026950D01*
X036381Y027025D01*
X036156Y027025D01*
X036156Y026575D01*
X035846Y026800D02*
X035695Y026800D01*
X035695Y027025D02*
X035695Y026575D01*
X035235Y026575D02*
X035235Y027025D01*
X035695Y027025D02*
X035996Y027025D01*
X036616Y026950D02*
X036691Y027025D01*
X036841Y027025D01*
X036916Y026950D01*
X036916Y026875D01*
X036616Y026575D01*
X036916Y026575D01*
X018775Y026700D02*
X018700Y026625D01*
X018550Y026625D01*
X018475Y026700D01*
X018314Y026700D02*
X018314Y027000D01*
X018239Y027075D01*
X018014Y027075D01*
X018014Y026625D01*
X018239Y026625D01*
X018314Y026700D01*
X018475Y027000D02*
X018550Y027075D01*
X018700Y027075D01*
X018775Y027000D01*
X018775Y026925D01*
X018700Y026850D01*
X018775Y026775D01*
X018775Y026700D01*
X018700Y026850D02*
X018625Y026850D01*
X017854Y026625D02*
X017554Y026625D01*
X017554Y027075D01*
X017854Y027075D01*
X017704Y026850D02*
X017554Y026850D01*
X017394Y026625D02*
X017093Y026625D01*
X017093Y027075D01*
D15*
X015580Y001750D02*
X015580Y001450D01*
X015580Y001150D01*
X015330Y001150D02*
X015330Y001450D01*
X015330Y001750D01*
X019220Y001750D02*
X019220Y001450D01*
X019220Y001150D01*
X019470Y001150D02*
X019470Y001450D01*
X019470Y001750D01*
D16*
X003800Y015800D02*
X003800Y019800D01*
X002650Y019850D02*
X002650Y015750D01*
X001500Y015800D02*
X001500Y019800D01*
X007900Y024850D02*
X012000Y024850D01*
X011950Y023700D02*
X007950Y023700D01*
X007950Y026000D02*
X011950Y026000D01*
X024750Y025850D02*
X028750Y025850D01*
X028800Y024700D02*
X024700Y024700D01*
X024750Y023550D02*
X028750Y023550D01*
D17*
X030825Y024700D03*
X022675Y024700D03*
X014025Y024850D03*
X005875Y024850D03*
D18*
X005975Y025625D03*
X005975Y024075D03*
X013925Y024075D03*
X013925Y025625D03*
X022775Y025475D03*
X022775Y023925D03*
X030725Y023925D03*
X030725Y025475D03*
D19*
X028875Y025725D03*
X028875Y023675D03*
X024625Y023675D03*
X024625Y025725D03*
X012075Y025875D03*
X012075Y023825D03*
X007825Y023825D03*
X007825Y025875D03*
D20*
X007825Y024850D03*
X012075Y024850D03*
X024625Y024700D03*
X028875Y024700D03*
D21*
X026750Y023750D03*
X026750Y025650D03*
X009950Y025800D03*
X009950Y023900D03*
D22*
X012975Y024075D03*
X012975Y025625D03*
X006925Y025625D03*
X006925Y024075D03*
X023725Y023925D03*
X023725Y025475D03*
X029775Y025475D03*
X029775Y023925D03*
D23*
X029950Y023800D03*
X029950Y025600D03*
X023550Y025600D03*
X023550Y023800D03*
X013150Y023950D03*
X013150Y025750D03*
X006750Y025750D03*
X006750Y023950D03*
D24*
X020050Y024450D02*
X020050Y025950D01*
X035350Y024000D02*
X036850Y024000D01*
X002950Y006800D02*
X001450Y006800D01*
D25*
X001625Y003900D03*
X003775Y003900D03*
D26*
X016500Y024075D03*
X016500Y026225D03*
X033500Y026175D03*
X033500Y024025D03*
D27*
X012794Y014485D02*
X012547Y014485D01*
X012547Y014300D01*
X012670Y014362D01*
X012732Y014362D01*
X012794Y014300D01*
X012794Y014177D01*
X012732Y014115D01*
X012608Y014115D01*
X012547Y014177D01*
X012425Y014053D02*
X012178Y014053D01*
X012057Y014115D02*
X011933Y014238D01*
X011995Y014238D02*
X011810Y014238D01*
X011810Y014115D02*
X011810Y014485D01*
X011995Y014485D01*
X012057Y014424D01*
X012057Y014300D01*
X011995Y014238D01*
X011689Y014177D02*
X011689Y014424D01*
X011627Y014485D01*
X011503Y014485D01*
X011442Y014424D01*
X011442Y014177D01*
X011503Y014115D01*
X011627Y014115D01*
X011689Y014177D01*
X011320Y014485D02*
X011073Y014485D01*
X011197Y014485D02*
X011197Y014115D01*
X010952Y014115D02*
X010952Y014362D01*
X010829Y014485D01*
X010705Y014362D01*
X010705Y014115D01*
X010584Y014115D02*
X010337Y014115D01*
X010337Y014485D01*
X010215Y014485D02*
X010215Y014177D01*
X010154Y014115D01*
X010030Y014115D01*
X009968Y014177D01*
X009968Y014485D01*
X009847Y014424D02*
X009785Y014485D01*
X009662Y014485D01*
X009600Y014424D01*
X009600Y014177D01*
X009662Y014115D01*
X009785Y014115D01*
X009847Y014177D01*
X009847Y014300D01*
X009724Y014300D01*
X009479Y014115D02*
X009232Y014115D01*
X009232Y014485D01*
X009479Y014485D01*
X009355Y014300D02*
X009232Y014300D01*
X009110Y014300D02*
X009049Y014238D01*
X008864Y014238D01*
X008987Y014238D02*
X009110Y014115D01*
X009110Y014300D02*
X009110Y014424D01*
X009049Y014485D01*
X008864Y014485D01*
X008864Y014115D01*
X008742Y014053D02*
X008495Y014053D01*
X008374Y014115D02*
X008127Y014115D01*
X008127Y014485D01*
X008374Y014485D01*
X008250Y014300D02*
X008127Y014300D01*
X008005Y014300D02*
X007882Y014300D01*
X008005Y014300D02*
X008005Y014177D01*
X007944Y014115D01*
X007820Y014115D01*
X007759Y014177D01*
X007759Y014424D01*
X007820Y014485D01*
X007944Y014485D01*
X008005Y014424D01*
X007637Y014362D02*
X007637Y014115D01*
X007637Y014300D02*
X007390Y014300D01*
X007390Y014362D02*
X007514Y014485D01*
X007637Y014362D01*
X007390Y014362D02*
X007390Y014115D01*
X007145Y014115D02*
X007145Y014485D01*
X007022Y014485D02*
X007269Y014485D01*
X006901Y014115D02*
X006654Y014115D01*
X006654Y014485D01*
X006532Y014424D02*
X006470Y014485D01*
X006347Y014485D01*
X006285Y014424D01*
X006285Y014177D01*
X006347Y014115D01*
X006470Y014115D01*
X006532Y014177D01*
X006532Y014424D01*
X006164Y014485D02*
X006164Y014238D01*
X006040Y014115D01*
X005917Y014238D01*
X005917Y014485D01*
X010705Y014300D02*
X010952Y014300D01*
D28*
X002650Y013725D03*
X002650Y021875D03*
D29*
X001875Y021775D03*
X003425Y021775D03*
X003425Y013825D03*
X001875Y013825D03*
D30*
X001625Y015675D03*
X003675Y015675D03*
X003675Y019925D03*
X001625Y019925D03*
D31*
X002650Y019925D03*
X002650Y015675D03*
D32*
X001700Y017800D03*
X003600Y017800D03*
D33*
X003425Y020825D03*
X001875Y020825D03*
X001875Y014775D03*
X003425Y014775D03*
D34*
X003550Y014600D03*
X001750Y014600D03*
X001750Y021000D03*
X003550Y021000D03*
M02*
