G75*
%MOIN*%
%OFA0B0*%
%FSLAX24Y24*%
%IPPOS*%
%LPD*%
%AMOC8*
5,1,8,0,0,1.08239X$1,22.5*
%
%ADD10R,0.0827X0.0827*%
%ADD11OC8,0.0630*%
%ADD12OC8,0.0520*%
%ADD13C,0.1000*%
%ADD14R,0.1250X0.1250*%
%ADD15R,0.0860X0.0860*%
%ADD16C,0.1350*%
%ADD17C,0.0500*%
D10*
X002800Y025017D03*
X002800Y027183D03*
X006700Y027767D03*
X006700Y029933D03*
X010950Y029933D03*
X010950Y027767D03*
X015050Y027767D03*
X015050Y029933D03*
X021650Y029983D03*
X021650Y027817D03*
X026050Y027817D03*
X026050Y029983D03*
X030100Y029983D03*
X030100Y027817D03*
D11*
X027250Y002100D03*
X027250Y001100D03*
X010100Y001100D03*
X010100Y002100D03*
D12*
X001200Y003900D03*
X004200Y003900D03*
X002200Y007300D03*
X002200Y008300D03*
X002200Y010750D03*
X004200Y010750D03*
X014450Y001450D03*
X016450Y001450D03*
X018350Y001450D03*
X020350Y001450D03*
X016500Y023650D03*
X018550Y025200D03*
X019550Y025200D03*
X016500Y026650D03*
X033500Y026600D03*
X036100Y025500D03*
X036100Y024500D03*
X033500Y023600D03*
D13*
X031680Y024200D02*
X031680Y025200D01*
X021820Y025200D02*
X021820Y024200D01*
X014880Y024350D02*
X014880Y025350D01*
X005020Y025350D02*
X005020Y024350D01*
X003150Y022730D02*
X002150Y022730D01*
X002150Y012870D02*
X003150Y012870D01*
D14*
X006100Y009100D03*
X014100Y009100D03*
X011100Y017100D03*
X009100Y017100D03*
X024950Y022100D03*
X026950Y022100D03*
X027950Y004100D03*
X030950Y004100D03*
D15*
X032950Y004100D03*
X025950Y004100D03*
X022950Y004100D03*
X019950Y004100D03*
X010100Y009100D03*
X014100Y017100D03*
X030950Y022100D03*
D16*
X024950Y022100D02*
X011900Y022100D01*
X009050Y019250D01*
X009050Y017150D01*
X009100Y017100D01*
X006880Y017100D01*
X002650Y012870D01*
X002200Y012420D01*
X002200Y010750D01*
X002650Y022730D02*
X002650Y024867D01*
X002800Y025017D01*
D17*
X005020Y024850D02*
X005000Y024600D01*
X005000Y016900D01*
X000800Y012700D01*
X000800Y007800D01*
X002200Y006400D01*
X003600Y006400D01*
X004650Y007450D01*
X009900Y002200D01*
X010100Y002100D01*
X010250Y002200D01*
X010950Y001500D01*
X014450Y001500D01*
X014450Y001450D01*
X016450Y001450D02*
X016550Y001500D01*
X018300Y001500D01*
X018350Y001450D01*
X020350Y001450D02*
X020400Y001500D01*
X026350Y001500D01*
X027050Y002200D01*
X027250Y002100D01*
X027400Y002200D01*
X027400Y003600D01*
X027750Y003950D01*
X027950Y004100D01*
X028100Y004300D01*
X028100Y022850D01*
X026350Y024600D01*
X022150Y024600D01*
X021820Y024700D01*
X018550Y025200D02*
X018300Y025300D01*
X017950Y025300D01*
X016550Y023900D01*
X016500Y023650D01*
X015150Y024950D02*
X014880Y024850D01*
X015150Y024950D02*
X015150Y025650D01*
X016375Y026875D01*
X017250Y027750D01*
X021450Y027750D01*
X021650Y027817D01*
X024950Y029150D02*
X026000Y028100D01*
X026050Y027817D01*
X026350Y027750D01*
X029150Y024950D01*
X031600Y024950D01*
X031680Y024700D01*
X031950Y024950D01*
X033350Y023550D01*
X033500Y023600D01*
X033700Y024600D02*
X031250Y027050D01*
X029150Y027050D01*
X026350Y029850D01*
X026050Y029983D01*
X024950Y029150D02*
X014800Y029150D01*
X013750Y028100D01*
X010950Y028100D01*
X010950Y027767D01*
X015050Y027767D02*
X015150Y028100D01*
X016375Y026875D01*
X016550Y026700D01*
X016500Y026650D01*
X033500Y026600D02*
X033700Y026700D01*
X034750Y025650D01*
X036150Y025650D01*
X036100Y025500D01*
X036150Y024600D02*
X036100Y024500D01*
X036150Y024600D02*
X033700Y024600D01*
X030950Y004100D02*
X030900Y003950D01*
X028100Y001150D01*
X027400Y001150D01*
X027250Y001100D01*
X006050Y008850D02*
X006100Y009100D01*
X006050Y008850D02*
X004650Y007450D01*
X002200Y008300D02*
X002200Y010750D01*
M02*
