%
M48
M72
T01C0.0320
T02C0.0520
T03C0.0551
T04C0.2500
%
T01
X1200Y3900
X4200Y3900
X2200Y7300
X2200Y8300
X2200Y10750
X4200Y10750
X10100Y2100
X10100Y1100
X14450Y1450
X16450Y1450
X18350Y1450
X20350Y1450
X27250Y1100
X27250Y2100
X33500Y23600
X36100Y24500
X36100Y25500
X33500Y26600
X19550Y25200
X18550Y25200
X16500Y26650
X16500Y23650
T02
X14880Y24850
X21820Y24700
X31680Y24700
X5020Y24850
X2650Y22730
X2650Y12870
T03
X6100Y9100
X10100Y9100
X14100Y9100
X19950Y4100
X22950Y4100
X25950Y4100
X27950Y4100
X30950Y4100
X32950Y4100
X14100Y17100
X11100Y17100
X9100Y17100
X2800Y25017
X2800Y27183
X6700Y27767
X6700Y29933
X10950Y29933
X10950Y27767
X15050Y27767
X15050Y29933
X21650Y29983
X21650Y27817
X26050Y27817
X26050Y29983
X30100Y29983
X30100Y27817
X30950Y22100
X26950Y22100
X24950Y22100
T04
X1600Y1600
X1600Y30100
X38100Y30100
X38100Y1600
M30
