G75*
%MOIN*%
%OFA0B0*%
%FSLAX24Y24*%
%IPPOS*%
%LPD*%
%AMOC8*
5,1,8,0,0,1.08239X$1,22.5*
%
%ADD10C,0.2580*%
%ADD11R,0.0907X0.0907*%
%ADD12OC8,0.0710*%
%ADD13OC8,0.0600*%
%ADD14C,0.1080*%
%ADD15R,0.1330X0.1330*%
%ADD16R,0.0940X0.0940*%
D10*
X001600Y001600D03*
X001600Y030100D03*
X038100Y030100D03*
X038100Y001600D03*
D11*
X030100Y027817D03*
X030100Y029983D03*
X026050Y029983D03*
X026050Y027817D03*
X021650Y027817D03*
X021650Y029983D03*
X015050Y029933D03*
X015050Y027767D03*
X010950Y027767D03*
X010950Y029933D03*
X006700Y029933D03*
X006700Y027767D03*
X002800Y027183D03*
X002800Y025017D03*
D12*
X010100Y002100D03*
X010100Y001100D03*
X027250Y001100D03*
X027250Y002100D03*
D13*
X020350Y001450D03*
X018350Y001450D03*
X016450Y001450D03*
X014450Y001450D03*
X004200Y003900D03*
X001200Y003900D03*
X002200Y007300D03*
X002200Y008300D03*
X002200Y010750D03*
X004200Y010750D03*
X016500Y023650D03*
X018550Y025200D03*
X019550Y025200D03*
X016500Y026650D03*
X033500Y026600D03*
X036100Y025500D03*
X036100Y024500D03*
X033500Y023600D03*
D14*
X031680Y024200D02*
X031680Y025200D01*
X021820Y025200D02*
X021820Y024200D01*
X014880Y024350D02*
X014880Y025350D01*
X005020Y025350D02*
X005020Y024350D01*
X003150Y022730D02*
X002150Y022730D01*
X002150Y012870D02*
X003150Y012870D01*
D15*
X006100Y009100D03*
X014100Y009100D03*
X011100Y017100D03*
X009100Y017100D03*
X024950Y022100D03*
X026950Y022100D03*
X027950Y004100D03*
X030950Y004100D03*
D16*
X032950Y004100D03*
X025950Y004100D03*
X022950Y004100D03*
X019950Y004100D03*
X010100Y009100D03*
X014100Y017100D03*
X030950Y022100D03*
M02*
