%
M48
M72
T01C0.0320
T02C0.0472
T03C0.0473
T04C0.0551
T05C0.0560
T06C0.1181
T07C0.2500
%
T01
X1100Y5617
X2600Y7617
X2600Y8617
X1600Y11117
X3600Y11117
X4100Y5617
X9100Y1617
X10100Y1617
X12100Y1617
X14100Y1617
X18600Y1617
X20600Y1617
X23100Y1617
X24100Y1617
X17600Y23617
X19600Y24617
X20600Y24617
X17600Y26617
X31600Y26617
X33600Y24617
X34600Y24617
X31600Y23617
T02
X26600Y22117
X24600Y22117
X20600Y22117
X11100Y17117
X9100Y17117
X6100Y17117
X6100Y9117
X10100Y9117
X14100Y9117
X18600Y4117
X20600Y4117
X25600Y4117
X28600Y4117
X31600Y4117
T03
X23600Y4117
T04
X3100Y24034
X3100Y26199
X8600Y28034
X8600Y30199
X13600Y30199
X13600Y28034
X19100Y28034
X19100Y30199
X24100Y30199
X24100Y28034
X29100Y28034
X29100Y30199
X34100Y29199
X34100Y27034
T05
X29100Y25117
X23100Y25117
X15100Y25117
X9100Y25117
X2600Y19617
X2600Y13617
T06
X1250Y26018
X4950Y26018
X6750Y30018
X10450Y30018
X11750Y30018
X15450Y30018
X17250Y30018
X20950Y30018
X22250Y30018
X25950Y30018
X27250Y30018
X30950Y30018
X32250Y29018
X35950Y29018
T07
X1600Y1617
X1600Y30117
X38100Y30117
X38100Y1617
M30
