G75*
%MOIN*%
%OFA0B0*%
%FSLAX24Y24*%
%IPPOS*%
%LPD*%
%AMOC8*
5,1,8,0,0,1.08239X$1,22.5*
%
%ADD10C,0.0000*%
D10*
X000100Y000117D02*
X000100Y031613D01*
X039470Y031613D01*
X039470Y000117D01*
X000100Y000117D01*
X000350Y001617D02*
X000352Y001687D01*
X000358Y001757D01*
X000368Y001826D01*
X000381Y001895D01*
X000399Y001963D01*
X000420Y002030D01*
X000445Y002095D01*
X000474Y002159D01*
X000506Y002222D01*
X000542Y002282D01*
X000581Y002340D01*
X000623Y002396D01*
X000668Y002450D01*
X000716Y002501D01*
X000767Y002549D01*
X000821Y002594D01*
X000877Y002636D01*
X000935Y002675D01*
X000995Y002711D01*
X001058Y002743D01*
X001122Y002772D01*
X001187Y002797D01*
X001254Y002818D01*
X001322Y002836D01*
X001391Y002849D01*
X001460Y002859D01*
X001530Y002865D01*
X001600Y002867D01*
X001670Y002865D01*
X001740Y002859D01*
X001809Y002849D01*
X001878Y002836D01*
X001946Y002818D01*
X002013Y002797D01*
X002078Y002772D01*
X002142Y002743D01*
X002205Y002711D01*
X002265Y002675D01*
X002323Y002636D01*
X002379Y002594D01*
X002433Y002549D01*
X002484Y002501D01*
X002532Y002450D01*
X002577Y002396D01*
X002619Y002340D01*
X002658Y002282D01*
X002694Y002222D01*
X002726Y002159D01*
X002755Y002095D01*
X002780Y002030D01*
X002801Y001963D01*
X002819Y001895D01*
X002832Y001826D01*
X002842Y001757D01*
X002848Y001687D01*
X002850Y001617D01*
X002848Y001547D01*
X002842Y001477D01*
X002832Y001408D01*
X002819Y001339D01*
X002801Y001271D01*
X002780Y001204D01*
X002755Y001139D01*
X002726Y001075D01*
X002694Y001012D01*
X002658Y000952D01*
X002619Y000894D01*
X002577Y000838D01*
X002532Y000784D01*
X002484Y000733D01*
X002433Y000685D01*
X002379Y000640D01*
X002323Y000598D01*
X002265Y000559D01*
X002205Y000523D01*
X002142Y000491D01*
X002078Y000462D01*
X002013Y000437D01*
X001946Y000416D01*
X001878Y000398D01*
X001809Y000385D01*
X001740Y000375D01*
X001670Y000369D01*
X001600Y000367D01*
X001530Y000369D01*
X001460Y000375D01*
X001391Y000385D01*
X001322Y000398D01*
X001254Y000416D01*
X001187Y000437D01*
X001122Y000462D01*
X001058Y000491D01*
X000995Y000523D01*
X000935Y000559D01*
X000877Y000598D01*
X000821Y000640D01*
X000767Y000685D01*
X000716Y000733D01*
X000668Y000784D01*
X000623Y000838D01*
X000581Y000894D01*
X000542Y000952D01*
X000506Y001012D01*
X000474Y001075D01*
X000445Y001139D01*
X000420Y001204D01*
X000399Y001271D01*
X000381Y001339D01*
X000368Y001408D01*
X000358Y001477D01*
X000352Y001547D01*
X000350Y001617D01*
X000659Y026018D02*
X000661Y026066D01*
X000667Y026114D01*
X000677Y026161D01*
X000690Y026207D01*
X000708Y026252D01*
X000728Y026296D01*
X000753Y026338D01*
X000781Y026377D01*
X000811Y026414D01*
X000845Y026448D01*
X000882Y026480D01*
X000920Y026509D01*
X000961Y026534D01*
X001004Y026556D01*
X001049Y026574D01*
X001095Y026588D01*
X001142Y026599D01*
X001190Y026606D01*
X001238Y026609D01*
X001286Y026608D01*
X001334Y026603D01*
X001382Y026594D01*
X001428Y026582D01*
X001473Y026565D01*
X001517Y026545D01*
X001559Y026522D01*
X001599Y026495D01*
X001637Y026465D01*
X001672Y026432D01*
X001704Y026396D01*
X001734Y026358D01*
X001760Y026317D01*
X001782Y026274D01*
X001802Y026230D01*
X001817Y026185D01*
X001829Y026138D01*
X001837Y026090D01*
X001841Y026042D01*
X001841Y025994D01*
X001837Y025946D01*
X001829Y025898D01*
X001817Y025851D01*
X001802Y025806D01*
X001782Y025762D01*
X001760Y025719D01*
X001734Y025678D01*
X001704Y025640D01*
X001672Y025604D01*
X001637Y025571D01*
X001599Y025541D01*
X001559Y025514D01*
X001517Y025491D01*
X001473Y025471D01*
X001428Y025454D01*
X001382Y025442D01*
X001334Y025433D01*
X001286Y025428D01*
X001238Y025427D01*
X001190Y025430D01*
X001142Y025437D01*
X001095Y025448D01*
X001049Y025462D01*
X001004Y025480D01*
X000961Y025502D01*
X000920Y025527D01*
X000882Y025556D01*
X000845Y025588D01*
X000811Y025622D01*
X000781Y025659D01*
X000753Y025698D01*
X000728Y025740D01*
X000708Y025784D01*
X000690Y025829D01*
X000677Y025875D01*
X000667Y025922D01*
X000661Y025970D01*
X000659Y026018D01*
X004359Y026018D02*
X004361Y026066D01*
X004367Y026114D01*
X004377Y026161D01*
X004390Y026207D01*
X004408Y026252D01*
X004428Y026296D01*
X004453Y026338D01*
X004481Y026377D01*
X004511Y026414D01*
X004545Y026448D01*
X004582Y026480D01*
X004620Y026509D01*
X004661Y026534D01*
X004704Y026556D01*
X004749Y026574D01*
X004795Y026588D01*
X004842Y026599D01*
X004890Y026606D01*
X004938Y026609D01*
X004986Y026608D01*
X005034Y026603D01*
X005082Y026594D01*
X005128Y026582D01*
X005173Y026565D01*
X005217Y026545D01*
X005259Y026522D01*
X005299Y026495D01*
X005337Y026465D01*
X005372Y026432D01*
X005404Y026396D01*
X005434Y026358D01*
X005460Y026317D01*
X005482Y026274D01*
X005502Y026230D01*
X005517Y026185D01*
X005529Y026138D01*
X005537Y026090D01*
X005541Y026042D01*
X005541Y025994D01*
X005537Y025946D01*
X005529Y025898D01*
X005517Y025851D01*
X005502Y025806D01*
X005482Y025762D01*
X005460Y025719D01*
X005434Y025678D01*
X005404Y025640D01*
X005372Y025604D01*
X005337Y025571D01*
X005299Y025541D01*
X005259Y025514D01*
X005217Y025491D01*
X005173Y025471D01*
X005128Y025454D01*
X005082Y025442D01*
X005034Y025433D01*
X004986Y025428D01*
X004938Y025427D01*
X004890Y025430D01*
X004842Y025437D01*
X004795Y025448D01*
X004749Y025462D01*
X004704Y025480D01*
X004661Y025502D01*
X004620Y025527D01*
X004582Y025556D01*
X004545Y025588D01*
X004511Y025622D01*
X004481Y025659D01*
X004453Y025698D01*
X004428Y025740D01*
X004408Y025784D01*
X004390Y025829D01*
X004377Y025875D01*
X004367Y025922D01*
X004361Y025970D01*
X004359Y026018D01*
X006159Y030018D02*
X006161Y030066D01*
X006167Y030114D01*
X006177Y030161D01*
X006190Y030207D01*
X006208Y030252D01*
X006228Y030296D01*
X006253Y030338D01*
X006281Y030377D01*
X006311Y030414D01*
X006345Y030448D01*
X006382Y030480D01*
X006420Y030509D01*
X006461Y030534D01*
X006504Y030556D01*
X006549Y030574D01*
X006595Y030588D01*
X006642Y030599D01*
X006690Y030606D01*
X006738Y030609D01*
X006786Y030608D01*
X006834Y030603D01*
X006882Y030594D01*
X006928Y030582D01*
X006973Y030565D01*
X007017Y030545D01*
X007059Y030522D01*
X007099Y030495D01*
X007137Y030465D01*
X007172Y030432D01*
X007204Y030396D01*
X007234Y030358D01*
X007260Y030317D01*
X007282Y030274D01*
X007302Y030230D01*
X007317Y030185D01*
X007329Y030138D01*
X007337Y030090D01*
X007341Y030042D01*
X007341Y029994D01*
X007337Y029946D01*
X007329Y029898D01*
X007317Y029851D01*
X007302Y029806D01*
X007282Y029762D01*
X007260Y029719D01*
X007234Y029678D01*
X007204Y029640D01*
X007172Y029604D01*
X007137Y029571D01*
X007099Y029541D01*
X007059Y029514D01*
X007017Y029491D01*
X006973Y029471D01*
X006928Y029454D01*
X006882Y029442D01*
X006834Y029433D01*
X006786Y029428D01*
X006738Y029427D01*
X006690Y029430D01*
X006642Y029437D01*
X006595Y029448D01*
X006549Y029462D01*
X006504Y029480D01*
X006461Y029502D01*
X006420Y029527D01*
X006382Y029556D01*
X006345Y029588D01*
X006311Y029622D01*
X006281Y029659D01*
X006253Y029698D01*
X006228Y029740D01*
X006208Y029784D01*
X006190Y029829D01*
X006177Y029875D01*
X006167Y029922D01*
X006161Y029970D01*
X006159Y030018D01*
X009859Y030018D02*
X009861Y030066D01*
X009867Y030114D01*
X009877Y030161D01*
X009890Y030207D01*
X009908Y030252D01*
X009928Y030296D01*
X009953Y030338D01*
X009981Y030377D01*
X010011Y030414D01*
X010045Y030448D01*
X010082Y030480D01*
X010120Y030509D01*
X010161Y030534D01*
X010204Y030556D01*
X010249Y030574D01*
X010295Y030588D01*
X010342Y030599D01*
X010390Y030606D01*
X010438Y030609D01*
X010486Y030608D01*
X010534Y030603D01*
X010582Y030594D01*
X010628Y030582D01*
X010673Y030565D01*
X010717Y030545D01*
X010759Y030522D01*
X010799Y030495D01*
X010837Y030465D01*
X010872Y030432D01*
X010904Y030396D01*
X010934Y030358D01*
X010960Y030317D01*
X010982Y030274D01*
X011002Y030230D01*
X011017Y030185D01*
X011029Y030138D01*
X011037Y030090D01*
X011041Y030042D01*
X011041Y029994D01*
X011037Y029946D01*
X011029Y029898D01*
X011017Y029851D01*
X011002Y029806D01*
X010982Y029762D01*
X010960Y029719D01*
X010934Y029678D01*
X010904Y029640D01*
X010872Y029604D01*
X010837Y029571D01*
X010799Y029541D01*
X010759Y029514D01*
X010717Y029491D01*
X010673Y029471D01*
X010628Y029454D01*
X010582Y029442D01*
X010534Y029433D01*
X010486Y029428D01*
X010438Y029427D01*
X010390Y029430D01*
X010342Y029437D01*
X010295Y029448D01*
X010249Y029462D01*
X010204Y029480D01*
X010161Y029502D01*
X010120Y029527D01*
X010082Y029556D01*
X010045Y029588D01*
X010011Y029622D01*
X009981Y029659D01*
X009953Y029698D01*
X009928Y029740D01*
X009908Y029784D01*
X009890Y029829D01*
X009877Y029875D01*
X009867Y029922D01*
X009861Y029970D01*
X009859Y030018D01*
X011159Y030018D02*
X011161Y030066D01*
X011167Y030114D01*
X011177Y030161D01*
X011190Y030207D01*
X011208Y030252D01*
X011228Y030296D01*
X011253Y030338D01*
X011281Y030377D01*
X011311Y030414D01*
X011345Y030448D01*
X011382Y030480D01*
X011420Y030509D01*
X011461Y030534D01*
X011504Y030556D01*
X011549Y030574D01*
X011595Y030588D01*
X011642Y030599D01*
X011690Y030606D01*
X011738Y030609D01*
X011786Y030608D01*
X011834Y030603D01*
X011882Y030594D01*
X011928Y030582D01*
X011973Y030565D01*
X012017Y030545D01*
X012059Y030522D01*
X012099Y030495D01*
X012137Y030465D01*
X012172Y030432D01*
X012204Y030396D01*
X012234Y030358D01*
X012260Y030317D01*
X012282Y030274D01*
X012302Y030230D01*
X012317Y030185D01*
X012329Y030138D01*
X012337Y030090D01*
X012341Y030042D01*
X012341Y029994D01*
X012337Y029946D01*
X012329Y029898D01*
X012317Y029851D01*
X012302Y029806D01*
X012282Y029762D01*
X012260Y029719D01*
X012234Y029678D01*
X012204Y029640D01*
X012172Y029604D01*
X012137Y029571D01*
X012099Y029541D01*
X012059Y029514D01*
X012017Y029491D01*
X011973Y029471D01*
X011928Y029454D01*
X011882Y029442D01*
X011834Y029433D01*
X011786Y029428D01*
X011738Y029427D01*
X011690Y029430D01*
X011642Y029437D01*
X011595Y029448D01*
X011549Y029462D01*
X011504Y029480D01*
X011461Y029502D01*
X011420Y029527D01*
X011382Y029556D01*
X011345Y029588D01*
X011311Y029622D01*
X011281Y029659D01*
X011253Y029698D01*
X011228Y029740D01*
X011208Y029784D01*
X011190Y029829D01*
X011177Y029875D01*
X011167Y029922D01*
X011161Y029970D01*
X011159Y030018D01*
X014859Y030018D02*
X014861Y030066D01*
X014867Y030114D01*
X014877Y030161D01*
X014890Y030207D01*
X014908Y030252D01*
X014928Y030296D01*
X014953Y030338D01*
X014981Y030377D01*
X015011Y030414D01*
X015045Y030448D01*
X015082Y030480D01*
X015120Y030509D01*
X015161Y030534D01*
X015204Y030556D01*
X015249Y030574D01*
X015295Y030588D01*
X015342Y030599D01*
X015390Y030606D01*
X015438Y030609D01*
X015486Y030608D01*
X015534Y030603D01*
X015582Y030594D01*
X015628Y030582D01*
X015673Y030565D01*
X015717Y030545D01*
X015759Y030522D01*
X015799Y030495D01*
X015837Y030465D01*
X015872Y030432D01*
X015904Y030396D01*
X015934Y030358D01*
X015960Y030317D01*
X015982Y030274D01*
X016002Y030230D01*
X016017Y030185D01*
X016029Y030138D01*
X016037Y030090D01*
X016041Y030042D01*
X016041Y029994D01*
X016037Y029946D01*
X016029Y029898D01*
X016017Y029851D01*
X016002Y029806D01*
X015982Y029762D01*
X015960Y029719D01*
X015934Y029678D01*
X015904Y029640D01*
X015872Y029604D01*
X015837Y029571D01*
X015799Y029541D01*
X015759Y029514D01*
X015717Y029491D01*
X015673Y029471D01*
X015628Y029454D01*
X015582Y029442D01*
X015534Y029433D01*
X015486Y029428D01*
X015438Y029427D01*
X015390Y029430D01*
X015342Y029437D01*
X015295Y029448D01*
X015249Y029462D01*
X015204Y029480D01*
X015161Y029502D01*
X015120Y029527D01*
X015082Y029556D01*
X015045Y029588D01*
X015011Y029622D01*
X014981Y029659D01*
X014953Y029698D01*
X014928Y029740D01*
X014908Y029784D01*
X014890Y029829D01*
X014877Y029875D01*
X014867Y029922D01*
X014861Y029970D01*
X014859Y030018D01*
X016659Y030018D02*
X016661Y030066D01*
X016667Y030114D01*
X016677Y030161D01*
X016690Y030207D01*
X016708Y030252D01*
X016728Y030296D01*
X016753Y030338D01*
X016781Y030377D01*
X016811Y030414D01*
X016845Y030448D01*
X016882Y030480D01*
X016920Y030509D01*
X016961Y030534D01*
X017004Y030556D01*
X017049Y030574D01*
X017095Y030588D01*
X017142Y030599D01*
X017190Y030606D01*
X017238Y030609D01*
X017286Y030608D01*
X017334Y030603D01*
X017382Y030594D01*
X017428Y030582D01*
X017473Y030565D01*
X017517Y030545D01*
X017559Y030522D01*
X017599Y030495D01*
X017637Y030465D01*
X017672Y030432D01*
X017704Y030396D01*
X017734Y030358D01*
X017760Y030317D01*
X017782Y030274D01*
X017802Y030230D01*
X017817Y030185D01*
X017829Y030138D01*
X017837Y030090D01*
X017841Y030042D01*
X017841Y029994D01*
X017837Y029946D01*
X017829Y029898D01*
X017817Y029851D01*
X017802Y029806D01*
X017782Y029762D01*
X017760Y029719D01*
X017734Y029678D01*
X017704Y029640D01*
X017672Y029604D01*
X017637Y029571D01*
X017599Y029541D01*
X017559Y029514D01*
X017517Y029491D01*
X017473Y029471D01*
X017428Y029454D01*
X017382Y029442D01*
X017334Y029433D01*
X017286Y029428D01*
X017238Y029427D01*
X017190Y029430D01*
X017142Y029437D01*
X017095Y029448D01*
X017049Y029462D01*
X017004Y029480D01*
X016961Y029502D01*
X016920Y029527D01*
X016882Y029556D01*
X016845Y029588D01*
X016811Y029622D01*
X016781Y029659D01*
X016753Y029698D01*
X016728Y029740D01*
X016708Y029784D01*
X016690Y029829D01*
X016677Y029875D01*
X016667Y029922D01*
X016661Y029970D01*
X016659Y030018D01*
X020359Y030018D02*
X020361Y030066D01*
X020367Y030114D01*
X020377Y030161D01*
X020390Y030207D01*
X020408Y030252D01*
X020428Y030296D01*
X020453Y030338D01*
X020481Y030377D01*
X020511Y030414D01*
X020545Y030448D01*
X020582Y030480D01*
X020620Y030509D01*
X020661Y030534D01*
X020704Y030556D01*
X020749Y030574D01*
X020795Y030588D01*
X020842Y030599D01*
X020890Y030606D01*
X020938Y030609D01*
X020986Y030608D01*
X021034Y030603D01*
X021082Y030594D01*
X021128Y030582D01*
X021173Y030565D01*
X021217Y030545D01*
X021259Y030522D01*
X021299Y030495D01*
X021337Y030465D01*
X021372Y030432D01*
X021404Y030396D01*
X021434Y030358D01*
X021460Y030317D01*
X021482Y030274D01*
X021502Y030230D01*
X021517Y030185D01*
X021529Y030138D01*
X021537Y030090D01*
X021541Y030042D01*
X021541Y029994D01*
X021537Y029946D01*
X021529Y029898D01*
X021517Y029851D01*
X021502Y029806D01*
X021482Y029762D01*
X021460Y029719D01*
X021434Y029678D01*
X021404Y029640D01*
X021372Y029604D01*
X021337Y029571D01*
X021299Y029541D01*
X021259Y029514D01*
X021217Y029491D01*
X021173Y029471D01*
X021128Y029454D01*
X021082Y029442D01*
X021034Y029433D01*
X020986Y029428D01*
X020938Y029427D01*
X020890Y029430D01*
X020842Y029437D01*
X020795Y029448D01*
X020749Y029462D01*
X020704Y029480D01*
X020661Y029502D01*
X020620Y029527D01*
X020582Y029556D01*
X020545Y029588D01*
X020511Y029622D01*
X020481Y029659D01*
X020453Y029698D01*
X020428Y029740D01*
X020408Y029784D01*
X020390Y029829D01*
X020377Y029875D01*
X020367Y029922D01*
X020361Y029970D01*
X020359Y030018D01*
X021659Y030018D02*
X021661Y030066D01*
X021667Y030114D01*
X021677Y030161D01*
X021690Y030207D01*
X021708Y030252D01*
X021728Y030296D01*
X021753Y030338D01*
X021781Y030377D01*
X021811Y030414D01*
X021845Y030448D01*
X021882Y030480D01*
X021920Y030509D01*
X021961Y030534D01*
X022004Y030556D01*
X022049Y030574D01*
X022095Y030588D01*
X022142Y030599D01*
X022190Y030606D01*
X022238Y030609D01*
X022286Y030608D01*
X022334Y030603D01*
X022382Y030594D01*
X022428Y030582D01*
X022473Y030565D01*
X022517Y030545D01*
X022559Y030522D01*
X022599Y030495D01*
X022637Y030465D01*
X022672Y030432D01*
X022704Y030396D01*
X022734Y030358D01*
X022760Y030317D01*
X022782Y030274D01*
X022802Y030230D01*
X022817Y030185D01*
X022829Y030138D01*
X022837Y030090D01*
X022841Y030042D01*
X022841Y029994D01*
X022837Y029946D01*
X022829Y029898D01*
X022817Y029851D01*
X022802Y029806D01*
X022782Y029762D01*
X022760Y029719D01*
X022734Y029678D01*
X022704Y029640D01*
X022672Y029604D01*
X022637Y029571D01*
X022599Y029541D01*
X022559Y029514D01*
X022517Y029491D01*
X022473Y029471D01*
X022428Y029454D01*
X022382Y029442D01*
X022334Y029433D01*
X022286Y029428D01*
X022238Y029427D01*
X022190Y029430D01*
X022142Y029437D01*
X022095Y029448D01*
X022049Y029462D01*
X022004Y029480D01*
X021961Y029502D01*
X021920Y029527D01*
X021882Y029556D01*
X021845Y029588D01*
X021811Y029622D01*
X021781Y029659D01*
X021753Y029698D01*
X021728Y029740D01*
X021708Y029784D01*
X021690Y029829D01*
X021677Y029875D01*
X021667Y029922D01*
X021661Y029970D01*
X021659Y030018D01*
X025359Y030018D02*
X025361Y030066D01*
X025367Y030114D01*
X025377Y030161D01*
X025390Y030207D01*
X025408Y030252D01*
X025428Y030296D01*
X025453Y030338D01*
X025481Y030377D01*
X025511Y030414D01*
X025545Y030448D01*
X025582Y030480D01*
X025620Y030509D01*
X025661Y030534D01*
X025704Y030556D01*
X025749Y030574D01*
X025795Y030588D01*
X025842Y030599D01*
X025890Y030606D01*
X025938Y030609D01*
X025986Y030608D01*
X026034Y030603D01*
X026082Y030594D01*
X026128Y030582D01*
X026173Y030565D01*
X026217Y030545D01*
X026259Y030522D01*
X026299Y030495D01*
X026337Y030465D01*
X026372Y030432D01*
X026404Y030396D01*
X026434Y030358D01*
X026460Y030317D01*
X026482Y030274D01*
X026502Y030230D01*
X026517Y030185D01*
X026529Y030138D01*
X026537Y030090D01*
X026541Y030042D01*
X026541Y029994D01*
X026537Y029946D01*
X026529Y029898D01*
X026517Y029851D01*
X026502Y029806D01*
X026482Y029762D01*
X026460Y029719D01*
X026434Y029678D01*
X026404Y029640D01*
X026372Y029604D01*
X026337Y029571D01*
X026299Y029541D01*
X026259Y029514D01*
X026217Y029491D01*
X026173Y029471D01*
X026128Y029454D01*
X026082Y029442D01*
X026034Y029433D01*
X025986Y029428D01*
X025938Y029427D01*
X025890Y029430D01*
X025842Y029437D01*
X025795Y029448D01*
X025749Y029462D01*
X025704Y029480D01*
X025661Y029502D01*
X025620Y029527D01*
X025582Y029556D01*
X025545Y029588D01*
X025511Y029622D01*
X025481Y029659D01*
X025453Y029698D01*
X025428Y029740D01*
X025408Y029784D01*
X025390Y029829D01*
X025377Y029875D01*
X025367Y029922D01*
X025361Y029970D01*
X025359Y030018D01*
X026659Y030018D02*
X026661Y030066D01*
X026667Y030114D01*
X026677Y030161D01*
X026690Y030207D01*
X026708Y030252D01*
X026728Y030296D01*
X026753Y030338D01*
X026781Y030377D01*
X026811Y030414D01*
X026845Y030448D01*
X026882Y030480D01*
X026920Y030509D01*
X026961Y030534D01*
X027004Y030556D01*
X027049Y030574D01*
X027095Y030588D01*
X027142Y030599D01*
X027190Y030606D01*
X027238Y030609D01*
X027286Y030608D01*
X027334Y030603D01*
X027382Y030594D01*
X027428Y030582D01*
X027473Y030565D01*
X027517Y030545D01*
X027559Y030522D01*
X027599Y030495D01*
X027637Y030465D01*
X027672Y030432D01*
X027704Y030396D01*
X027734Y030358D01*
X027760Y030317D01*
X027782Y030274D01*
X027802Y030230D01*
X027817Y030185D01*
X027829Y030138D01*
X027837Y030090D01*
X027841Y030042D01*
X027841Y029994D01*
X027837Y029946D01*
X027829Y029898D01*
X027817Y029851D01*
X027802Y029806D01*
X027782Y029762D01*
X027760Y029719D01*
X027734Y029678D01*
X027704Y029640D01*
X027672Y029604D01*
X027637Y029571D01*
X027599Y029541D01*
X027559Y029514D01*
X027517Y029491D01*
X027473Y029471D01*
X027428Y029454D01*
X027382Y029442D01*
X027334Y029433D01*
X027286Y029428D01*
X027238Y029427D01*
X027190Y029430D01*
X027142Y029437D01*
X027095Y029448D01*
X027049Y029462D01*
X027004Y029480D01*
X026961Y029502D01*
X026920Y029527D01*
X026882Y029556D01*
X026845Y029588D01*
X026811Y029622D01*
X026781Y029659D01*
X026753Y029698D01*
X026728Y029740D01*
X026708Y029784D01*
X026690Y029829D01*
X026677Y029875D01*
X026667Y029922D01*
X026661Y029970D01*
X026659Y030018D01*
X030359Y030018D02*
X030361Y030066D01*
X030367Y030114D01*
X030377Y030161D01*
X030390Y030207D01*
X030408Y030252D01*
X030428Y030296D01*
X030453Y030338D01*
X030481Y030377D01*
X030511Y030414D01*
X030545Y030448D01*
X030582Y030480D01*
X030620Y030509D01*
X030661Y030534D01*
X030704Y030556D01*
X030749Y030574D01*
X030795Y030588D01*
X030842Y030599D01*
X030890Y030606D01*
X030938Y030609D01*
X030986Y030608D01*
X031034Y030603D01*
X031082Y030594D01*
X031128Y030582D01*
X031173Y030565D01*
X031217Y030545D01*
X031259Y030522D01*
X031299Y030495D01*
X031337Y030465D01*
X031372Y030432D01*
X031404Y030396D01*
X031434Y030358D01*
X031460Y030317D01*
X031482Y030274D01*
X031502Y030230D01*
X031517Y030185D01*
X031529Y030138D01*
X031537Y030090D01*
X031541Y030042D01*
X031541Y029994D01*
X031537Y029946D01*
X031529Y029898D01*
X031517Y029851D01*
X031502Y029806D01*
X031482Y029762D01*
X031460Y029719D01*
X031434Y029678D01*
X031404Y029640D01*
X031372Y029604D01*
X031337Y029571D01*
X031299Y029541D01*
X031259Y029514D01*
X031217Y029491D01*
X031173Y029471D01*
X031128Y029454D01*
X031082Y029442D01*
X031034Y029433D01*
X030986Y029428D01*
X030938Y029427D01*
X030890Y029430D01*
X030842Y029437D01*
X030795Y029448D01*
X030749Y029462D01*
X030704Y029480D01*
X030661Y029502D01*
X030620Y029527D01*
X030582Y029556D01*
X030545Y029588D01*
X030511Y029622D01*
X030481Y029659D01*
X030453Y029698D01*
X030428Y029740D01*
X030408Y029784D01*
X030390Y029829D01*
X030377Y029875D01*
X030367Y029922D01*
X030361Y029970D01*
X030359Y030018D01*
X031659Y029018D02*
X031661Y029066D01*
X031667Y029114D01*
X031677Y029161D01*
X031690Y029207D01*
X031708Y029252D01*
X031728Y029296D01*
X031753Y029338D01*
X031781Y029377D01*
X031811Y029414D01*
X031845Y029448D01*
X031882Y029480D01*
X031920Y029509D01*
X031961Y029534D01*
X032004Y029556D01*
X032049Y029574D01*
X032095Y029588D01*
X032142Y029599D01*
X032190Y029606D01*
X032238Y029609D01*
X032286Y029608D01*
X032334Y029603D01*
X032382Y029594D01*
X032428Y029582D01*
X032473Y029565D01*
X032517Y029545D01*
X032559Y029522D01*
X032599Y029495D01*
X032637Y029465D01*
X032672Y029432D01*
X032704Y029396D01*
X032734Y029358D01*
X032760Y029317D01*
X032782Y029274D01*
X032802Y029230D01*
X032817Y029185D01*
X032829Y029138D01*
X032837Y029090D01*
X032841Y029042D01*
X032841Y028994D01*
X032837Y028946D01*
X032829Y028898D01*
X032817Y028851D01*
X032802Y028806D01*
X032782Y028762D01*
X032760Y028719D01*
X032734Y028678D01*
X032704Y028640D01*
X032672Y028604D01*
X032637Y028571D01*
X032599Y028541D01*
X032559Y028514D01*
X032517Y028491D01*
X032473Y028471D01*
X032428Y028454D01*
X032382Y028442D01*
X032334Y028433D01*
X032286Y028428D01*
X032238Y028427D01*
X032190Y028430D01*
X032142Y028437D01*
X032095Y028448D01*
X032049Y028462D01*
X032004Y028480D01*
X031961Y028502D01*
X031920Y028527D01*
X031882Y028556D01*
X031845Y028588D01*
X031811Y028622D01*
X031781Y028659D01*
X031753Y028698D01*
X031728Y028740D01*
X031708Y028784D01*
X031690Y028829D01*
X031677Y028875D01*
X031667Y028922D01*
X031661Y028970D01*
X031659Y029018D01*
X035359Y029018D02*
X035361Y029066D01*
X035367Y029114D01*
X035377Y029161D01*
X035390Y029207D01*
X035408Y029252D01*
X035428Y029296D01*
X035453Y029338D01*
X035481Y029377D01*
X035511Y029414D01*
X035545Y029448D01*
X035582Y029480D01*
X035620Y029509D01*
X035661Y029534D01*
X035704Y029556D01*
X035749Y029574D01*
X035795Y029588D01*
X035842Y029599D01*
X035890Y029606D01*
X035938Y029609D01*
X035986Y029608D01*
X036034Y029603D01*
X036082Y029594D01*
X036128Y029582D01*
X036173Y029565D01*
X036217Y029545D01*
X036259Y029522D01*
X036299Y029495D01*
X036337Y029465D01*
X036372Y029432D01*
X036404Y029396D01*
X036434Y029358D01*
X036460Y029317D01*
X036482Y029274D01*
X036502Y029230D01*
X036517Y029185D01*
X036529Y029138D01*
X036537Y029090D01*
X036541Y029042D01*
X036541Y028994D01*
X036537Y028946D01*
X036529Y028898D01*
X036517Y028851D01*
X036502Y028806D01*
X036482Y028762D01*
X036460Y028719D01*
X036434Y028678D01*
X036404Y028640D01*
X036372Y028604D01*
X036337Y028571D01*
X036299Y028541D01*
X036259Y028514D01*
X036217Y028491D01*
X036173Y028471D01*
X036128Y028454D01*
X036082Y028442D01*
X036034Y028433D01*
X035986Y028428D01*
X035938Y028427D01*
X035890Y028430D01*
X035842Y028437D01*
X035795Y028448D01*
X035749Y028462D01*
X035704Y028480D01*
X035661Y028502D01*
X035620Y028527D01*
X035582Y028556D01*
X035545Y028588D01*
X035511Y028622D01*
X035481Y028659D01*
X035453Y028698D01*
X035428Y028740D01*
X035408Y028784D01*
X035390Y028829D01*
X035377Y028875D01*
X035367Y028922D01*
X035361Y028970D01*
X035359Y029018D01*
X036850Y030117D02*
X036852Y030187D01*
X036858Y030257D01*
X036868Y030326D01*
X036881Y030395D01*
X036899Y030463D01*
X036920Y030530D01*
X036945Y030595D01*
X036974Y030659D01*
X037006Y030722D01*
X037042Y030782D01*
X037081Y030840D01*
X037123Y030896D01*
X037168Y030950D01*
X037216Y031001D01*
X037267Y031049D01*
X037321Y031094D01*
X037377Y031136D01*
X037435Y031175D01*
X037495Y031211D01*
X037558Y031243D01*
X037622Y031272D01*
X037687Y031297D01*
X037754Y031318D01*
X037822Y031336D01*
X037891Y031349D01*
X037960Y031359D01*
X038030Y031365D01*
X038100Y031367D01*
X038170Y031365D01*
X038240Y031359D01*
X038309Y031349D01*
X038378Y031336D01*
X038446Y031318D01*
X038513Y031297D01*
X038578Y031272D01*
X038642Y031243D01*
X038705Y031211D01*
X038765Y031175D01*
X038823Y031136D01*
X038879Y031094D01*
X038933Y031049D01*
X038984Y031001D01*
X039032Y030950D01*
X039077Y030896D01*
X039119Y030840D01*
X039158Y030782D01*
X039194Y030722D01*
X039226Y030659D01*
X039255Y030595D01*
X039280Y030530D01*
X039301Y030463D01*
X039319Y030395D01*
X039332Y030326D01*
X039342Y030257D01*
X039348Y030187D01*
X039350Y030117D01*
X039348Y030047D01*
X039342Y029977D01*
X039332Y029908D01*
X039319Y029839D01*
X039301Y029771D01*
X039280Y029704D01*
X039255Y029639D01*
X039226Y029575D01*
X039194Y029512D01*
X039158Y029452D01*
X039119Y029394D01*
X039077Y029338D01*
X039032Y029284D01*
X038984Y029233D01*
X038933Y029185D01*
X038879Y029140D01*
X038823Y029098D01*
X038765Y029059D01*
X038705Y029023D01*
X038642Y028991D01*
X038578Y028962D01*
X038513Y028937D01*
X038446Y028916D01*
X038378Y028898D01*
X038309Y028885D01*
X038240Y028875D01*
X038170Y028869D01*
X038100Y028867D01*
X038030Y028869D01*
X037960Y028875D01*
X037891Y028885D01*
X037822Y028898D01*
X037754Y028916D01*
X037687Y028937D01*
X037622Y028962D01*
X037558Y028991D01*
X037495Y029023D01*
X037435Y029059D01*
X037377Y029098D01*
X037321Y029140D01*
X037267Y029185D01*
X037216Y029233D01*
X037168Y029284D01*
X037123Y029338D01*
X037081Y029394D01*
X037042Y029452D01*
X037006Y029512D01*
X036974Y029575D01*
X036945Y029639D01*
X036920Y029704D01*
X036899Y029771D01*
X036881Y029839D01*
X036868Y029908D01*
X036858Y029977D01*
X036852Y030047D01*
X036850Y030117D01*
X036850Y001617D02*
X036852Y001687D01*
X036858Y001757D01*
X036868Y001826D01*
X036881Y001895D01*
X036899Y001963D01*
X036920Y002030D01*
X036945Y002095D01*
X036974Y002159D01*
X037006Y002222D01*
X037042Y002282D01*
X037081Y002340D01*
X037123Y002396D01*
X037168Y002450D01*
X037216Y002501D01*
X037267Y002549D01*
X037321Y002594D01*
X037377Y002636D01*
X037435Y002675D01*
X037495Y002711D01*
X037558Y002743D01*
X037622Y002772D01*
X037687Y002797D01*
X037754Y002818D01*
X037822Y002836D01*
X037891Y002849D01*
X037960Y002859D01*
X038030Y002865D01*
X038100Y002867D01*
X038170Y002865D01*
X038240Y002859D01*
X038309Y002849D01*
X038378Y002836D01*
X038446Y002818D01*
X038513Y002797D01*
X038578Y002772D01*
X038642Y002743D01*
X038705Y002711D01*
X038765Y002675D01*
X038823Y002636D01*
X038879Y002594D01*
X038933Y002549D01*
X038984Y002501D01*
X039032Y002450D01*
X039077Y002396D01*
X039119Y002340D01*
X039158Y002282D01*
X039194Y002222D01*
X039226Y002159D01*
X039255Y002095D01*
X039280Y002030D01*
X039301Y001963D01*
X039319Y001895D01*
X039332Y001826D01*
X039342Y001757D01*
X039348Y001687D01*
X039350Y001617D01*
X039348Y001547D01*
X039342Y001477D01*
X039332Y001408D01*
X039319Y001339D01*
X039301Y001271D01*
X039280Y001204D01*
X039255Y001139D01*
X039226Y001075D01*
X039194Y001012D01*
X039158Y000952D01*
X039119Y000894D01*
X039077Y000838D01*
X039032Y000784D01*
X038984Y000733D01*
X038933Y000685D01*
X038879Y000640D01*
X038823Y000598D01*
X038765Y000559D01*
X038705Y000523D01*
X038642Y000491D01*
X038578Y000462D01*
X038513Y000437D01*
X038446Y000416D01*
X038378Y000398D01*
X038309Y000385D01*
X038240Y000375D01*
X038170Y000369D01*
X038100Y000367D01*
X038030Y000369D01*
X037960Y000375D01*
X037891Y000385D01*
X037822Y000398D01*
X037754Y000416D01*
X037687Y000437D01*
X037622Y000462D01*
X037558Y000491D01*
X037495Y000523D01*
X037435Y000559D01*
X037377Y000598D01*
X037321Y000640D01*
X037267Y000685D01*
X037216Y000733D01*
X037168Y000784D01*
X037123Y000838D01*
X037081Y000894D01*
X037042Y000952D01*
X037006Y001012D01*
X036974Y001075D01*
X036945Y001139D01*
X036920Y001204D01*
X036899Y001271D01*
X036881Y001339D01*
X036868Y001408D01*
X036858Y001477D01*
X036852Y001547D01*
X036850Y001617D01*
X000350Y030117D02*
X000352Y030187D01*
X000358Y030257D01*
X000368Y030326D01*
X000381Y030395D01*
X000399Y030463D01*
X000420Y030530D01*
X000445Y030595D01*
X000474Y030659D01*
X000506Y030722D01*
X000542Y030782D01*
X000581Y030840D01*
X000623Y030896D01*
X000668Y030950D01*
X000716Y031001D01*
X000767Y031049D01*
X000821Y031094D01*
X000877Y031136D01*
X000935Y031175D01*
X000995Y031211D01*
X001058Y031243D01*
X001122Y031272D01*
X001187Y031297D01*
X001254Y031318D01*
X001322Y031336D01*
X001391Y031349D01*
X001460Y031359D01*
X001530Y031365D01*
X001600Y031367D01*
X001670Y031365D01*
X001740Y031359D01*
X001809Y031349D01*
X001878Y031336D01*
X001946Y031318D01*
X002013Y031297D01*
X002078Y031272D01*
X002142Y031243D01*
X002205Y031211D01*
X002265Y031175D01*
X002323Y031136D01*
X002379Y031094D01*
X002433Y031049D01*
X002484Y031001D01*
X002532Y030950D01*
X002577Y030896D01*
X002619Y030840D01*
X002658Y030782D01*
X002694Y030722D01*
X002726Y030659D01*
X002755Y030595D01*
X002780Y030530D01*
X002801Y030463D01*
X002819Y030395D01*
X002832Y030326D01*
X002842Y030257D01*
X002848Y030187D01*
X002850Y030117D01*
X002848Y030047D01*
X002842Y029977D01*
X002832Y029908D01*
X002819Y029839D01*
X002801Y029771D01*
X002780Y029704D01*
X002755Y029639D01*
X002726Y029575D01*
X002694Y029512D01*
X002658Y029452D01*
X002619Y029394D01*
X002577Y029338D01*
X002532Y029284D01*
X002484Y029233D01*
X002433Y029185D01*
X002379Y029140D01*
X002323Y029098D01*
X002265Y029059D01*
X002205Y029023D01*
X002142Y028991D01*
X002078Y028962D01*
X002013Y028937D01*
X001946Y028916D01*
X001878Y028898D01*
X001809Y028885D01*
X001740Y028875D01*
X001670Y028869D01*
X001600Y028867D01*
X001530Y028869D01*
X001460Y028875D01*
X001391Y028885D01*
X001322Y028898D01*
X001254Y028916D01*
X001187Y028937D01*
X001122Y028962D01*
X001058Y028991D01*
X000995Y029023D01*
X000935Y029059D01*
X000877Y029098D01*
X000821Y029140D01*
X000767Y029185D01*
X000716Y029233D01*
X000668Y029284D01*
X000623Y029338D01*
X000581Y029394D01*
X000542Y029452D01*
X000506Y029512D01*
X000474Y029575D01*
X000445Y029639D01*
X000420Y029704D01*
X000399Y029771D01*
X000381Y029839D01*
X000368Y029908D01*
X000358Y029977D01*
X000352Y030047D01*
X000350Y030117D01*
M02*
