G75*
%MOIN*%
%OFA0B0*%
%FSLAX24Y24*%
%IPPOS*%
%LPD*%
%AMOC8*
5,1,8,0,0,1.08239X$1,22.5*
%
%ADD10C,0.2580*%
%ADD11R,0.0907X0.0907*%
%ADD12C,0.1261*%
%ADD13OC8,0.0710*%
%ADD14OC8,0.0600*%
%ADD15R,0.0980X0.0980*%
%ADD16R,0.0789X0.0789*%
%ADD17R,0.0789X0.0789*%
D10*
X001600Y001617D03*
X001600Y030117D03*
X038100Y030117D03*
X038100Y001617D03*
D11*
X034100Y027034D03*
X034100Y029199D03*
X029100Y030199D03*
X029100Y028034D03*
X024100Y028034D03*
X024100Y030199D03*
X019100Y030199D03*
X019100Y028034D03*
X013600Y028034D03*
X013600Y030199D03*
X008600Y030199D03*
X008600Y028034D03*
X003100Y026199D03*
X003100Y024034D03*
D12*
X001250Y026018D03*
X004950Y026018D03*
X006750Y030018D03*
X010450Y030018D03*
X011750Y030018D03*
X015450Y030018D03*
X017250Y030018D03*
X020950Y030018D03*
X022250Y030018D03*
X025950Y030018D03*
X027250Y030018D03*
X030950Y030018D03*
X032250Y029018D03*
X035950Y029018D03*
D13*
X024100Y001617D03*
X023100Y001617D03*
X010100Y001617D03*
X009100Y001617D03*
D14*
X012100Y001617D03*
X014100Y001617D03*
X018600Y001617D03*
X020600Y001617D03*
X004100Y005617D03*
X002600Y007617D03*
X002600Y008617D03*
X001600Y011117D03*
X003600Y011117D03*
X001100Y005617D03*
X017600Y023617D03*
X019600Y024617D03*
X020600Y024617D03*
X017600Y026617D03*
X031600Y026617D03*
X033600Y024617D03*
X034600Y024617D03*
X031600Y023617D03*
D15*
X029100Y025117D03*
X023100Y025117D03*
X015100Y025117D03*
X009100Y025117D03*
X002600Y019617D03*
X002600Y013617D03*
D16*
X006100Y017117D03*
X009100Y017117D03*
X011100Y017117D03*
X020600Y022117D03*
X024600Y022117D03*
X026600Y022117D03*
X014100Y009117D03*
X010100Y009117D03*
X006100Y009117D03*
X018600Y004117D03*
X020600Y004117D03*
X025600Y004117D03*
X028600Y004117D03*
X031600Y004117D03*
D17*
X023600Y004117D03*
M02*
